<mxfile host="app.diagrams.net" modified="2023-12-18T18:32:24.859Z" agent="Mozilla/5.0 (Windows NT 10.0; Win64; x64; rv:120.0) Gecko/20100101 Firefox/120.0" etag="ndoSyUtoj7nQyqGY1ll7" version="22.1.11" type="device">
  <diagram name="Page-1" id="jr5IP1nWCZhQbbNc2Fgg">
    <mxGraphModel dx="2924" dy="1093" grid="1" gridSize="10" guides="1" tooltips="1" connect="1" arrows="1" fold="1" page="1" pageScale="1" pageWidth="850" pageHeight="1100" math="0" shadow="0">
      <root>
        <mxCell id="0" />
        <mxCell id="1" parent="0" />
        <object placeholders="1" c4Name="HR Client" c4Type="External application" c4Description="Customer that is managing a list of employees" label="&lt;font style=&quot;font-size: 16px&quot;&gt;&lt;b&gt;%c4Name%&lt;/b&gt;&lt;/font&gt;&lt;div&gt;[%c4Type%]&lt;/div&gt;&lt;br&gt;&lt;div&gt;&lt;font style=&quot;font-size: 11px&quot;&gt;&lt;font color=&quot;#cccccc&quot;&gt;%c4Description%&lt;/font&gt;&lt;/div&gt;" id="AVZEim4mHqBZefq6fgDy-1">
          <mxCell style="html=1;fontSize=11;dashed=0;whiteSpace=wrap;fillColor=#083F75;strokeColor=#06315C;fontColor=#ffffff;shape=mxgraph.c4.person2;align=center;metaEdit=1;points=[[0.5,0,0],[1,0.5,0],[1,0.75,0],[0.75,1,0],[0.5,1,0],[0.25,1,0],[0,0.75,0],[0,0.5,0]];resizable=0;" parent="1" vertex="1">
            <mxGeometry x="320" y="70" width="200" height="180" as="geometry" />
          </mxCell>
        </object>
        <object placeholders="1" c4Type="Relationship" c4Technology="JSON/HTTPS" c4Description="REST" label="&lt;div style=&quot;text-align: left&quot;&gt;&lt;div style=&quot;text-align: center&quot;&gt;&lt;b&gt;%c4Description%&lt;/b&gt;&lt;/div&gt;&lt;div style=&quot;text-align: center&quot;&gt;[%c4Technology%]&lt;/div&gt;&lt;/div&gt;" id="AVZEim4mHqBZefq6fgDy-2">
          <mxCell style="endArrow=blockThin;html=1;fontSize=10;fontColor=#404040;strokeWidth=1;endFill=1;strokeColor=#828282;elbow=vertical;metaEdit=1;endSize=14;startSize=14;jumpStyle=arc;jumpSize=16;rounded=0;exitX=0.5;exitY=1;exitDx=0;exitDy=0;exitPerimeter=0;dashed=1;dashPattern=12 12;entryX=0.5;entryY=0;entryDx=0;entryDy=0;entryPerimeter=0;" parent="1" source="AVZEim4mHqBZefq6fgDy-1" target="rG1uwLwOo09HGBvehcps-2" edge="1">
            <mxGeometry x="-0.256" y="-10" width="240" relative="1" as="geometry">
              <mxPoint x="300" y="580" as="sourcePoint" />
              <mxPoint x="236" y="365" as="targetPoint" />
              <mxPoint as="offset" />
            </mxGeometry>
          </mxCell>
        </object>
        <object placeholders="1" c4Type="Database" c4Container="Container" c4Technology="DynamoDB" c4Description="Stores user emails" label="&lt;font style=&quot;font-size: 16px&quot;&gt;&lt;b&gt;%c4Type%&lt;/b&gt;&lt;/font&gt;&lt;div&gt;[%c4Container%:&amp;nbsp;%c4Technology%]&lt;/div&gt;&lt;br&gt;&lt;div&gt;&lt;font style=&quot;font-size: 11px&quot;&gt;&lt;font color=&quot;#E6E6E6&quot;&gt;%c4Description%&lt;/font&gt;&lt;/div&gt;" id="AVZEim4mHqBZefq6fgDy-5">
          <mxCell style="shape=cylinder3;size=15;whiteSpace=wrap;html=1;boundedLbl=1;rounded=0;labelBackgroundColor=none;fillColor=#23A2D9;fontSize=12;fontColor=#ffffff;align=center;strokeColor=#0E7DAD;metaEdit=1;points=[[0.5,0,0],[1,0.25,0],[1,0.5,0],[1,0.75,0],[0.5,1,0],[0,0.75,0],[0,0.5,0],[0,0.25,0]];resizable=1;expand=1;direction=east;movableLabel=1;" parent="1" vertex="1">
            <mxGeometry x="540" y="382.5" width="334" height="215" as="geometry">
              <mxPoint x="-2" y="-49" as="offset" />
            </mxGeometry>
          </mxCell>
        </object>
        <object placeholders="1" c4Type="Relationship" c4Technology="aws-sdk" c4Description="Reads from and &#xa;writes to" label="&lt;div style=&quot;text-align: left&quot;&gt;&lt;div style=&quot;text-align: center&quot;&gt;&lt;b&gt;%c4Description%&lt;/b&gt;&lt;/div&gt;&lt;div style=&quot;text-align: center&quot;&gt;[%c4Technology%]&lt;/div&gt;&lt;/div&gt;" id="AVZEim4mHqBZefq6fgDy-6">
          <mxCell style="endArrow=blockThin;html=1;fontSize=10;fontColor=#404040;strokeWidth=1;endFill=1;strokeColor=#828282;elbow=vertical;metaEdit=1;endSize=14;startSize=14;jumpStyle=arc;jumpSize=16;rounded=0;edgeStyle=orthogonalEdgeStyle;entryX=0;entryY=0.5;entryDx=0;entryDy=0;entryPerimeter=0;exitX=1;exitY=0.5;exitDx=0;exitDy=0;exitPerimeter=0;" parent="1" source="rG1uwLwOo09HGBvehcps-2" target="AVZEim4mHqBZefq6fgDy-5" edge="1">
            <mxGeometry width="240" relative="1" as="geometry">
              <mxPoint x="356" y="445" as="sourcePoint" />
              <mxPoint x="486" y="440" as="targetPoint" />
            </mxGeometry>
          </mxCell>
        </object>
        <mxCell id="rG1uwLwOo09HGBvehcps-1" value="" style="outlineConnect=0;dashed=0;verticalLabelPosition=bottom;verticalAlign=top;align=center;html=1;shape=mxgraph.aws3.dynamo_db;fillColor=#2E73B8;gradientColor=none;" vertex="1" parent="1">
          <mxGeometry x="671" y="500" width="72" height="81" as="geometry" />
        </mxCell>
        <object placeholders="1" c4Name="API Application" c4Type="Container" c4Technology="Go" c4Description="Manages a list of users via JSON/HTTPS through an exposed API" label="&lt;font style=&quot;font-size: 16px&quot;&gt;&lt;b&gt;%c4Name%&lt;/b&gt;&lt;/font&gt;&lt;div&gt;[%c4Type%: %c4Technology%]&lt;/div&gt;&lt;br&gt;&lt;div&gt;&lt;font style=&quot;font-size: 11px&quot;&gt;&lt;font color=&quot;#E6E6E6&quot;&gt;%c4Description%&lt;/font&gt;&lt;/div&gt;" id="rG1uwLwOo09HGBvehcps-2">
          <mxCell style="rounded=1;whiteSpace=wrap;html=1;fontSize=11;labelBackgroundColor=none;fillColor=#23A2D9;fontColor=#ffffff;align=center;arcSize=10;strokeColor=#0E7DAD;metaEdit=1;resizable=1;points=[[0.25,0,0],[0.5,0,0],[0.75,0,0],[1,0.25,0],[1,0.5,0],[1,0.75,0],[0.75,1,0],[0.5,1,0],[0.25,1,0],[0,0.75,0],[0,0.5,0],[0,0.25,0]];movableLabel=1;" vertex="1" parent="1">
            <mxGeometry x="-30" y="382.5" width="370" height="207.5" as="geometry">
              <mxPoint x="-6" y="-34" as="offset" />
            </mxGeometry>
          </mxCell>
        </object>
        <mxCell id="rG1uwLwOo09HGBvehcps-5" value="" style="shape=image;verticalLabelPosition=bottom;labelBackgroundColor=default;verticalAlign=top;aspect=fixed;imageAspect=0;image=data:image/png,iVBORw0KGgoAAAANSUhEUgAAAXkAAAIBCAYAAACsms8MAACAAElEQVR42uxdBXgU1/ddJEASXEKcKBYswYITJDgEDQQIFhLcoYXS4rSFom2RYsUpxa24OxR3h1KkQKn+67/7f+fuzmQ2BIjsJivvft/52kK6O5l5c959V87V6aRJkyZNmjRp0tLQMghkNCCTQGYBBwOyCHgIlBVoIhArMEpglsB6gSMCtwR+EfifACXAfwI/C7wU+EnghcB3AvcFbgpcEDgrcEBgr8AGga8EFgjMEPhIYLhAL4EOhmuoJlBCwF3ASXOtDoZrz2SA8jtlkI9YmjRptm4gvawGUswhkEcgv4CXQFWBKAOZgrw3GYj3h0RI2xLxj8D3AucFdgssE5giMMjwe2FTCDD8vnkFcgk4C2QzbAxyE5AmTZrVGIgrt0BBgUICgQKhAu0ERgjME9gpcEPgz+SQaYaMGSlTlizk4OREWXPmpGx58pJTARfK7uZOOT29KVch30SR06sQ/31OL2/+Zw53T0Z2Nw/K7upGzgXd+HOc8ruQY958/LlZc+WmLDlyUhbn7OTg6ESZsmaljA4OfA2p3BCwGRw3nBY+NpwQ6gkECfgZTi35DJtARrmcpEmTll4Gr7yAgL9AGYM3HmnwxucL7BG485oQyqsEniEDZXZ0pGy58zDxgpzzFS5KLiXLkHvZilSoei0q2jySynTtQZWGjKSw8VOoweeLqMWKDdRu637qeuQCxZ27Q3EX7hpD/Fm3Y5ep69GLjC6Hz1P03pPUcfdxivrmEEVu3E1t1u+kFss3UMSStdR47lJq8OkCqjv5M6o5dhJVe28cVRo0nMrG9aVSHbtRsRaR5F+vEXlVqUHu5SqSa5myVCCoJOUNLEK5ffx483DKX0BsQrkoc7Zs/HslYwNAKOm0YQOYINBZoKZAsOE+5zeEg6RJkybNpOZk8MrLCzQwkM9ogSU6fUz8+6SQGLxhx3z5mcALBJUij4qVybdWOBVp2pLKdAF5v0e1Jk6jRnOWUKvVW6nDrmPU/fR16nf7OQ189DsNfPgrDfjuF+p//yfqd+9H6nfnBfW9/Yz63PyBet94Qr2vP04c+DsN+tx8asAP1OeWHvicvuJ7+t55zp/b7674/HsvxXe95O8b8OBn/m5cw8Dvf+Pr6Xf3BfW4eJ+6HrtE7XccodZrt1PThV9RvelzqeaYj6niwHf59yoa0Yb86jQgr8rVybV0COUNKCI2MnfKkj1HUsn/qcBRgcUC7xlORWECxQ3hH2nSpElLlnkbPHOQyTCB2QLbBK4I/P42UsqWJx/l8Q8k9/KV2Ost0bYjles1kKq/P4HqTZtDzb78mtpu2iu86nPU8/J3TJ4DHgryfpCQvJ8Kkn5Cva49ol5Xv7c8iOtSNhFca99bz/SbhNgg+mOD0GwMvcXPdjtxhTeDlqu2UMPZi6nWhKkUOniE2AjiqEhEa/KuFsabX/aCbpQxc+akEP8xgaUCH+j0SeEqAq5y+UqTJk1rSIiWFGgt8L7AIoFdAld1+oqV1xJN1hw5KX/R4uQTVlcQeTSFDhzOxAUCa7FyE0VtP0zdjl9mgoM3DK8Y3i88ZnjP7Flfe2yZBG5i4B6om4HYwPi0IDY0bAT499hzdyh67ylqs24HNZm/kupM/oyqDPuASkV3I9/a9Sh/keKUxdn5TaT/u2ET/kbgc4HeOn3C11kucWnS7M8Q440xkAGSoOcEHuveED9HnNm9fCgFtWnP5FN/xjyOYUdu2E3R+05xWAUkBi9WIXG9J/7Ycj1xS9oE1BPBD+omgJNB7Nlb1Gn/ab7PEYvXUPgnn1P5PoMooH4TyuMX8CbS/03gusA+w0ksWqeP60uTJs0GzUegk06fED0lcFunT/L9lxhBZM7mSK4h5alEu04cW26+fD213byPE5YIOfS8dF8f0waR39CHVOzFI0+XE4DYAHCf9ff7CSeTkUCO2n6IWn29jepM+pRKduhCLiVLky7xRC827+cC1wyb+juG05s0adKs2HBURyPPSZ0+MYpGoH8SI/VsefORX90GVHnoSGqxYiN13HOSuhy5ILzzG5xY1CcwDYlN9sqlZ57uuQBNPgB5je7f3uBnhph/g88WUMmoTpSrkM+bQjtPDBs+4vmF5esiTZrlGzpDWwisMJD6/wn8nSip58pDgQ2bUo3RH1O7LfsFQdyk2HO3mdB7XXmoD6/IEItVkj8A0o87f5dDPSD96u9PJO+qNYWXnyjh/20g/RMCfXX6Ri1p0qRZiDnq9BUwG3VvaCzKmCULeVaqRlXeHc1hFyYEkLkkRvuBeN7dBenXnzmPAhs05Qav16yXvwTWCtSRr5c0aWlraH1HC3xOgWaGF/GV8AtK79AVis7OoLbR1GTecuopPPS+ajWL9NDtPcGL2D5ObWgm861Tn7LmyqUv2Xw1ng99nyE6ffdyZp2UX5AmzWxhmHyGGPscQ2zdOFHq6Mjt+C4lSlOFvkOo7cY9+gqNez9yglSGXiQSC+2gkge9CTGnrnEHMfoasI7gJOhe1eb5QqCCQHZJ9tKkmcbQwg65gKE6vVKi0Yvn4ORMOTy8yKNCZaoybBRFbTuo7wa991JP7JLIJJLh3aN/AQ1p7bbso5DYPpS/aBA55smbWDhni06vxOkmyV6atOQbjsRFBVoJrNTpk6fxoRgHB5YEgI5L5aHvc3wd7fZoMpLELmEKwLuHs4BwTviUWeQf3ojXXCLCbPt1svZemrQkG47A1XX6jtNTCb0nZxdXKlSjNlXoP5Q7SVHOiA5SxFYlMUmYz7vXS0y0XLWZQrr3poKlghOTW4AOfw+dLMOUJi1Rg6Y6lBsxoOJBQnJ3DS4vXq4+LNiFJiQQO7pJZfJUIi1j9yzcJtD+m0NUdcRYLsfMmClTYp59f51+PoA0aZLcdXptka0CP2pfFigTFm7akrsY2209wC8ZPCoW6pKkI5GeoRyodd56xjIWWJ/Q1ElA9P/q9ENTML3LSb7m0uzRMBEJqo5QDzQS/0IStXyvgdR8+QbuXFRUGGVljITFkf0NvVRz54NnubvWu2pYQrL/2eDANJCvvDR7MSg9okrmsk4vHKW+ENAWrzlmEg+wiD17O17US5KJhMXH7fV9F50Pn6OGny/i4SkJyP4HQyjSU1KANFu27jr9wGijShlMEqo3dTZPK+px6b4+zi69dgkrFVHreeUhr+WwcZ/w+ESd8SD1ewJdJRVIszXD3E7Ut/+lJfec3j5Ud8osijt/h18MSRIStgTo5iCMU7J9l8Rq7BHC8UjDdxDfBXkGyGpjohaGq2NQPJoKp+n0080wY7ehTj9oXZq0JBlKyTYYklD6xZ0hA2V3caWwCVNVz0cSgoStl2C2WL6Ru7B1r+rcR+lM20iVwRASrajTq2pivvCvuuQPWYf+E8YsYr5uJZ1+jrFs+JKmGjpUh2sXF8rMcHStNHiEWPgPudFEEoCEPTVWQQ0TBQXZXu2e/crwzqSURDMbChlq6vSSCy8TJW7hYOE9RCMh5BowZ5iRRcAhC9f9J9LopQAa/HMNm0cOw0YizQ7N2RCaOaMsjgxiYWXLnYdKRnWmbiev8txPGW+XMJWUcO83wOJkosW1oIMWTXxuIeUT6uJ8J1Bbp9dnSs77VkRgsMCthMQM4s6aMxc3EKJT1zO0KhVv3Z7K9RxIVYeP5iE4NcdNpqrvjaPQAcOoZPvOPL4yr38gZXd14/c2Ee0e4LRARwF3wwYjzU4sSGCGdjFkzZmTfGvXpzZrt7MeiKyUkUjtcHClsxkToWJOXee5uSizxXQoFeK/8ecxp69zvkepa1fHMKazAik6Z3tcfEDBMb2ZTHXGtfXo9M77lncNXeHlDXF1I5G+zFmzUU4PL3INLkelortTvelzqcPOI1yGPPDR76r0B3fwindSD/HvyrD1h7+Kn/mJOh86Sw1nfSmusRePukRZcyZxAkhA9tcNxRTekv5s2zBYob1OP+xa772LIyE8ldofzeBFjQ5BSVoSSYpfCwIGmStOQddjl7i7tOVXW6jxvOUUPnU2VX9/ApXvPUiQWIzwTKMosFEEBTZsFg/x38VbRVFp8fdQIq0x+iOqN+MLarpwFbVe8w113H2Cup+5yadKgIk/jUkfvxsItfHcpeRWrmJC8oR0dvFE3rWMAqECn+j09ffxc4cLuJBX5er8+0J6ARsaTg24jynpMcFoRdwbXCP+Hfe/bI/+LAKIofUJrhe9Lm10+sZGaak06Kf7CpQWqCwQJhBuQA1DgqSkYWdNi8n0ZQXmaR84PJOyPQdQ9N5TrAIpvXeJt8v8PmUpaJBKZ+GJt1i+gbtIK/QdSkWatSL3cqE8EyBjZofkJg9fkaHO7etP3tXCeCQgZAkazl5MUdsOUM/LD+I1kNKQ8OFF6ytwOpODk9Hwkm91xg1UEOsbpdPr2qs/l8vbh4IiO1KDTxdQ7Jlb7I3Dazfl79Cb5RzESUAQfpejF6jWhKnkV7dhwuvFKQR9AMGSppNnfjq9lOkggemGBA1apTGr9IrAHZ1e5wVA/TkajDC6bIfAcoGpAv0Mi6WQiTP43QTOaxccZqM2XfSVflFIwTCJt4l+3dOLfnXcc4LCp8ymkJjeHBPO4xfAycE3EXbu3LnJ29ubihYtSmXLljVCcHAwFS5cmNzd3cnZ2fmNnwPNeLeQClS8TXv2+Ntu2sObTlo6KH0Ms2lrjp3EpK25vgeGssY4gUPGzpQ73y8Mlsf/ixBMWlwvTlrQ3e96/DLVnfwZq8AmuKcXBTrIxOzbyw77GUj6uCEh808qPBiUQt0TOCKwTKefXVk8FdeHjr3PdRopAiRoqr03jj0SeCYysSrx+iqTp+wxx567Q/WmzWFyLVg6hMk2sfXr5uZGYWFhFBMTQ+PHj6eFCxfShg0baNeuXXT48GE6deoUnT9/ni5cuKDi3LlzdPLkSTp48CBt376d1qxZQ7Nnz6YRI0ZQZGQklSlThrIkklDEGMD8xYL49FD3k8+px4W7aUeehvxDxJI15FGxsva6Xuj0c2f1odCMmahUx24ckulx8R5vkumRX0CHL2/Qe0/yu5/dzV17zT8aSi+lZk8Cwxi7rw2x7Z9fR9rZC7qzzGmhmrUpoGEzKhrRmooIQOsaingFipd87Quji9fSuCaw3pAhz5aMa8REpv0C/1M+r1C1WtTq623sTcAjSbcj/42n+glQd1/wi8lJpO9+4ZjiwO+B3wz4VZ9cwlAR4ZHAY8NiRRwYXorcoMxH7rjnHXcfp3K9BpJLiTLklC//K+szX758FBERQZMnT6bdu3czgd+7d49evHhBf//9N6XG/u///o+ePHlC169fpxMnTtCyZcuoV69efBpIzMPH5oNZBRgCjnVi9rVhIPoOO4/yRpPwmryr1uBNANOrsNYtoccE7wwaGVExhFOYzngo+nKdHIbO1tEQfnmWWAmUV5XqVLH/MGo6fwVPPOq45yR7zF2OXuQKAsjuAkhQoaqg04EzfPxtt2U/Nfh8IZVDssTYM9DiJ8PxaqSh9vVt12kkAYyad1QzsKeThguOk3O3n/OLhzih8mIgsVZr/BSqIO5X6U4x/KL41WkgNqIwTkoBOF76hTekos2FR9c5jn+HOh/PoIhl6/QnESSbOGH1I8dnZbNW6p8VnlHbzXv5niNnkzlbNqN1mCdPHuratStt2bKFbt++Tc+fP6c///yTzG3/+9//6Oeff6bvvvuOTwXDhg0jT0/PBFPHnCi3jx9VGjJSX0Rw53mahLJA5GW69uAiBnUDLFyMYs/cZIfG4qqgDLo9wd16JuSYXfZM9PUM9aa/JyRf31r1qP6MeZyE6v7tTYoTx0ZMmH+l/vc1UH4O3jUaMLqfvsEPIHzaXOHxNzRaOLr4qfSPdPp254R1uuh0G23YmQ2nCVcmVL6utCBBJTknPG4Qb3tB6Ej+BLXpQC5B+pNLlhw5ycHZWRCII9f2IkmH3xPNHajVN4L4s/imkKyckHNwzs5VA87id/OoWIUHQzSc/SVXYeB0wMO/ZRI5Wc8MYZkOu45RYKPmlDVX7ld01xGGWbt2LT179oy97P/++4/S07Cx/Pjjj7R+/XqqWrWqscOVNSvl8fXnKp20iNfzey7eeTghWNNKM1O+IsU5Ht77xhOLfOaYolXlnVEc+tLcv6NpVAhiMeZhiI0b6bhkyZGDy8LgTeLh9jKHlov4TBA/PP4qI8YkTPKQIQzzWKCzpppnufZnPCtVo/Y7DqcJuStxShyXUe8LbXlnl4IqUeOfqam2eC2Uz88oNonMmcmlRCmq0G8oe6Mc1pFk/9ZEImrUQ2L78uZrVOEi7mdcXBxduXJF9aYtzZRrOnbsGNWqVSvB6dqBfOvUFyfmb9NkGhlOrEjIOmgSyLl9fPn7LZLouSfhGdUY/TE3Ymnu3T6dHcgioDMswpBIVckEN6KyOAoiiZKWD03J6NefOY/yC+8gY6ZXRpmdMcTf1c7VElGdKObkVbNfJ8rZUA4WPm0OeVev9UqrNa4lk/AKHcQLB+CIXbduXerbty9Nnz6dvcMjR45w7PXx48f0008/0e+//87e4suXL/nPLl++TAcOHKCvvvqKPv74Y07sVapUifLmzcufCTLKmEiLd06vQlRp0HCK3ntSL6omhdVeeXaNZi/mDkvlnuE+Ojk50eDBg9lrtzbDOkHFjnY9ZC/oxl59r2tpUGYpTg74Lm19Ohw0DCyx1AE6/R+8pGojx4trNiL61bZM8AUEJibM5JdoF82kqS83fJROu+4P/P0oh8rjH8jH0oTEhsUVOvBdvkZzeLFKaAnE3mbdDq4ecHByNI6NCuLNIU47BQsWpBo1atDo0aNpx44dTNqmNiT6VqxYQT169KAiRYow8Ts6Or5yX3zrNqBmi9dQd+G14vrtPWmLJiO0zWs34+zZs3O8HRurtducOXPIxcVFQ/YZuGsV+TBzP3uEiNA4pdW9yRtQmMNhlurRo8gBiWuEQjXvzRhbJHhoS2xVvRrhMbuWKUsRS9bqM+QWcvRHzTKICvkALZHlcPekWhOn6kvJTLyQ+XcXnjDCR2hKSVhzC28apF6iRAnq2bMnJ+Z+++23NH+5r127RlOnTqWaNWuSl5cXe6VGZX5lK1KDzxZy3kOfD7GfcA6eISQGGn+xnBOUagemuEc4XR0/fpxsyZCkbdGihdGmj8o2FEWYO0mPYoCIZeu5u1X5bihbouigj8US/W8U3K2XtpHtH0NEw2askqFBiePd8IhLd+rOiROuJ7egFxX/RKLRWbOA8hUpRo3mLuHqCFN/nzIyDbH2hNU/aHRBLTM86W+++cai4rYI84wZM4YqV65M+fMblwCiEgqhCjzftO6cTC9lRVRXhQ4cbnQfUJI4c+ZM+vfff8kWDetx2rRp3Gyl/M5w3ND6b26vGjH6iKXrjOrSITyG0lSWL7DAdYKKpIBGzbRrBH07gbZA8I0FvtfGcmtNmGIguB8siuDhgUBnJkv2+GMVugBR/45yQtMu0mdcBlb/0/ni1BBuRA6urq7UpEkTmjVrFj169MiiX/Q//viD66zbtGnDDTva36NYi7b8IvKzvvHUJgkeFUdIREMnRi0eyJKF2rVrx81I9mAIF6LDVnVOfP256szcCVmQedNFqyiHm4dRt3nng2cskujxHiCkWSColLbAY42AgzUTfEuBp8oDwLzHZotWU/97P1pUZQYTvEDY+CmURZMJL1SzDs9ZRQjH1G3sLVZs5C5HbYlVgQIFqEuXLrRu3TpOjlqT/fXXX7Rp0yaKjo7m+LOamBOeFjxchHC4kcaGCB6hu2aLV3NTnho2cHHhBqZffvmF7MnQrBUeHm703JvMX2H2kzreJ6hEOhcoGO9ctGzLOT5LDN3A2Wn99Tfa+PwvBrkGq7IMms7V7+PjtRUocv1Orhm2tN0VHnxNzKHMHZ/MKdykBWftWeTIhNKqcWdvU+ig4axVrZajZcrE5Lht2zaufrFmQ1MN2ucbNGhgnJytXY+aL1vP3bW2EL7BOkalh7Z6BjmTrVu3kr3a3bt3qXHjxvEVWJ7eFLF4DVfFmFVPX/wTQm6QFVGq9crG9uH+FUss88XmU2X4GO37AZ2tAGsj+OoGyQB9+CGkPCdF0qJLLtn15+KGI0SjLhDEUpu3oc6HzpnUE4CEQJt1O7nzVDuAAOWKaDpBd6Mt2YMHD+jTTz/lLs74Y3wAn5a4g9ZCE2RJK4v7iepO/lx4q/FhAiRXL168SPZu33//PTVq1Ci+i9cvgNpt2mvWdx9EjpLVau+NVRum0OBXY9REiy3tRXc+9Ok1YZtR1uTJ+2uV4tCZBnkBixtzZyD4Bp8toGx58xod9TAowFQVAvgceDIQesobUMSorO6jjz6ihw8f2uwL/88//9C3337LBKiWoebMRRX7DaMelx5YZZweIZrwKbNY/VD5nRB/B7lJ0xt6AJCQj0/GljOET56aleh7XLhHIcKD1xmaAzM7OlHThV+p3j5+Rq/r9COfxFiz6b5esyk91mKzL7/WevNQsg2xBoKHyNditXwsXwFqv/2wRR6ZcE0IHzjlL2AUooHmjanCCYqWTeigEZQtV271e0qWLMmqgWmhS2IJ9vTpUxo+PL7yBDM0y3Tpwf0A1uTRgxwaf7GMJw4pv0v37t1t7hRmCkM/gI+Pj0ExMiMnpnlojhlDdZzY/PYmFW7cPF5gLV9+VoiEUB/q+BG/rzx0JJXpFMva9SHd+1DYuMnMU/rBKT+kmZPZ7cTVhAJs71oDyQ9QZAoy6DJQy5WbLPK4BO8a9bw53OOP21COg+iZqTYkvQzBba6NhSyA8j2xsbGsJGiJbezmNCSSFyxYYCTBgIlG0BOyBnkEeICt12xncSzl+jt06MDPUlriBskGB4Mefhbn7KzlYuoqtcSE4FCSjFJOtVkqsAi5FC/Jnj3GAiKUA0eDdZvEP3mYtwDUNpvMW55mlTmKpLJGQwuTpYpaMsFXFbih3NiaYyaxSI8lvrBdj12kAsWC4sskg8uzWqWpHi42EajnlYruZpR8nDFjht1476+rq169ejV37Cr3pGyPflxKml6dzkl9GTHhy6dGHfW6UeIKuV5pbzY8b218vtXqbSYtZkh0Q771THzPVqPSyuQgsHEEh37SYl2hvwKjGjXf39ZSCR4zDReoN0kczbodv2KR8rQQ+YKwkrrw/AN5zBricqb6jpiT1yi4a4/4KoOcOVkeQJreoKmDclHl/lQdMYZVQi1VRbL7tzcouHtv9XrLly9PN27ckA8yCYZGsG7d4p0dhFJAoOY+vSHmziXR2XOkiOhdgkrzczf3daIIATkezXdDtDG/pdbDq7NNIzfssshmhJ6XHlDZuL7qDYWSY73pc/RlfSb6DoQfysb2NZroA1KTZmyLFy/mwRjKfao3Y55FhvYgvoZuZLWb18uL9u/fLx9gMgwnHiU+DzXO2h/OMLs3z1ICD3+loMjoxCTFkwTvKtXF5zw0q7MKnkQUwbV0iPK9z3X62dUWZZ5alUaMwGJVQgvz4rlUUiwutSvROTtVNXGMEOEpDFVQvsPDw4OPq9ISN+jgKKEbxERbr/nG4hKxUVsPkFN+F1WHZu7cufLBJdOgj4/eCXWjrFyd1UvNXtHCHPSIS7hTQvLIpZXvM8S8pd8QJRS8oT35GwYTWcxsWFxIB1U7Qjw8fbnkU7MlTEECKpJ4lEIopvnSdZQ5S1Y121+6Y4xJs/34net8NFN9UBAUW7p0qXzD32KDBg1iATZ9zDaQRdosJREbd/4OBdRvopa8ImluzzmV1BhUUiF9obwfNUZ9mCaOIN5LVM5oxcySA3TSttu8j+P85hRFrPvJLG33+zJLmiKF2NFZrknN5sgxMFPvelAyxGdCIwRx2y6HzrEXgGYllODhz1GH/rohFjgWomoGSZ/4Sppw/ixTeY24vojFX3P2nheGszM3Akl7u0FNU9s8gzm9luDN4xowYFu5rpCQENbll5Zyw6xa5KeU2nnIA6eF9ACcvLqTP02ZN58pE8tGg2fMVRyAuDxC3FDSNHzvQwE3SyD4jAbpAsNw3ZqcKTblEQwE3ePSfWqyYCVVHPAOFWvZjvzq1CfvamGcPEVnKpofwsZ9wtl0JHQGfPezepJQGiQwy1SbaI0WpG+qnRm/b6eDZ9RNBB7fu+++K9/oZBjIU4nZopGlzuTP0lf+QniYUNBUqjMQUlq0aJF8UKk0SF5gGpbyLqLTvGca5WHABSXadUoR0ePdRsm1uWroFZnqwIZNtd8bbAkkD+W0vTrDkN+qw8eYVKMCuxskS1FelMPD840PAcecvIFFyb9eY84JdNr/LQ148DNLCYSKzSGToVY3c9asHLYxZSUNNiJtCRRK66DMKC15tnLlyvhpP4X8qMuR8+nm0eP4HGKopsFgjGbNmskHZCKDto8iTY0RmnAM02ruAOrn8xUummySx8jBqiPGckOVOauBoLej+d7OlhCXL6aqJxYvoU+kmCgWjx2zzqSZPKgj2Q/EyVlcT0meRYpafe1n1Bj1kUnzBUja1hw3mTJny6YmWjFMQVrKLDIyUk14lWzfhTfp9KiJx2QnpfQuV65cdObMGflwTGQYQdm2bVv1nUQzUFo+XyhjpsSbR9SAQzZmyiNAoTVs7GTKGt9DMlUga3qT/AfKC1mibTRrQJgqURI+ZTafDlIzhBo5ApRrKXNRIVmAI5EpEzqQQMDoMeU7MbFJWsoN+i/KpCF0I7dZu92sCa9EN27hrZWI7Kiqg2JknzTT2hdffMF5K1bubBfNubW065O5TcExvZJfTlktjLXgzVUUgLweum1zxEtmbBFwSm+Sv8llZQVcqNGcJSYJgeAGtt28jzInMkc0NYCYVPS+0yavwS0R1Vkd/N2pUyf59prAPvzwQ7UCqliLSM6xpGWytfPh86oiaTZxQoOapjTTGhrJoL7KpczZs3NoLu0kTR5zWWxywzbu5Spy17O5yj4Rnm6zfqdWNuOSQPb0JHg/rS5EDxPpNiNMo9UGMRUafbHUpAkexOFbrtqsaonD+4QIl7TUG4ZtoPyUpYl9/HgqV1o0zihx0XK9BrG2idy4zWu9esV70+HT5ugHwKdhYr32xzOTR/IVKvHJ3VzVQIgMYBMpGN8U9UwgR3qSfB+lvAgqaqaYfYqa9eqjPlRlQk2FklFd+JhluljaI47NIUSlfAfmXKLhQ1rqDfcR91Px5qFWmRaVNtzVKKAdwn3p0iX5QMxkX3/9tTouMqBB0zTRitFGDFCCrfRAJAW+tcOpx0XzyTHgFNnt+GWtxvzf6V0rv0bJOkOmM9Xj8dDkJI5ROd29TErw8LQxvs+Uu6/ixecxxOI9PT3pxx9/lG+tCe2HH37ghCfXUwejntr8w5kRbqw/cz5lNXwv9NClmc8gRQwNIL3uuyN1Z5G6NKygEs+78dyl5Jg3X5K4pHSn7mZV0NTPf71BnhWraL83XUn+AYcpxA1inZpUDuxF0gH6IJmyZjUpydeaOM0skrPleg1UvwNNT3///bd8a01oKEEdOnSoIWabg2pNmGr2WaFIuBZp2lKVhV6+fHmqfw8MTUFtODYtkBo0XKA9jwYwaURRUVHxVTZL16apEilObhhcgyqupOT0kBQ173SrJxxx8LAQknfU/vKIpaW2zhU7JI5sSiWMKYDPM3WtNbdI7ziiHqlcXV3p/v378m01g504cUJ9lug4hLicuYSi+Kh84grlC9RP7sqSJQv9+uuvKb52EPnJkydp3rx5LIVQr149qlChAlWpUoUiIiJo2LBhPPIReuvWPtM3NTZr1iz1xBYS1zfNVWvhzaMXB3Iab+SS+k30MirmHHiihmsqKd/7X3qSfLC2Pn7go99THapBmVzuQn4mI3jnAi76SfEmbHpS8gbhn8xS50iis9WeX1JzGrze6tWr69dZUClqs36X2ToOkWNp8OkCVYisRYsWKbpmDEbZtGkTDxPJnj37W9epv78/jRw5ks6ePWuXzxijIaHqydK+pcqkS/NbX/HsUVKpVMm9GvL1o9Zrd5h9PjUnXvec1CZeXwjkTC+Sb6YkxfzqNkx1nKqPYZJL9oJuJiN5TBzCYF9T7rz4rNhzt/mzlRrqffv2STY2k/3111/0ySef6O+1gwPPyDXXi4amq+BuPXlKkBKqSe7krps3b1Lfvn3VOv9kDakIDKTZs2en6vRgjYZ7jFGY3FksSDbuQtrPFECoGRo6iVX1YR4x1p05O13jB538QG3W7dCWdl5JzxLK7kplDbQgUlv5oKjEQdvdFASP5qTIjbtNTgioj223ZZ8qIhQWFkb37t0zyWJHLTZmvh44cICOHj1K165dk9IIwqDbntEQwsNxHjpGpu44VKpqfGrGT31KateyshGcPn1aPXWkFKjJhyKnvY0TRPhKecat125PFwVSzJOo0HeIUU4Q+cZaE6fqlWrT4kQh+KrR3KXaDv1v0rMZapCy8+KYk9pOV/bkD50lZxN48nhI5XsPNIvHhx0fQ5yV7xo3blyqEq7nzp2j8ePH8yJHJUeJEiWocOHCVKxYMSpXrhzVrVuXPUMc/+3V0DSDe4H7XahGbZbOQILKHFK0LkGl+HuCgoKSlRhFqKVMmTImcVBAdnjmaP23FxszZgxvcCw7MvqjdBk2xPHwk1eNYvMY8M3d1mmUJ4CzDPllB0MnsMC09JQ1GMILUhxtQ2L7suZCamPy/QQpa+uTUwocuaBHbvKFgkz8hXtUafAINTG3YcOGFC3qW7duUZcuXfiI/rajPRQt3d3dqUaNGrRu3Tq7I3lokCuqhRCpg9KoqZ8tHILGGg8Ko+qSeoqC112xYkWTN+9hmArCVfZgqJdX5IdLRnVOs8a3V735n6lcz/6UySGLQcagVpp2W4NHS3eJs5jBIUNVkhe7nSk0a1C+Vqxl2xSP6dLX2jpR5WGjUl+z/5ojPdTyoHKJ7woODmZPPLm2YMECJvdMKfg9MSovOjrabl5+xT777LP4zuU5Szh2aeqXC014ELbDd6DiA6WPSbHOnTuroQZTApv/8ePH7eL5XrhwQR0D6Rla1ewJzjdFFDrtP60K06G4ouOuY2mSDMbpFJU1vrXraddB8fSskY+Lj8lHm6QbEVUTGP2WOWu2VMTiA/XlnGaI6eEz0VSlnDbatWtHz549S9Zifv/991WPJcUbmdhYq1atyjXX9mIbN27kkxOPlhwxlkspTZp0/e4Xjvcr9xh5gKQkXbdt26Z2bJoDGKRiD2Eb9BEoMhY53DzN4qQlZ8P3rVWPu+5RWFI2rr9J5dPf1HvTfPl67WCjywKu6UnyEUp1jX94Q5N1geFmorY9RbH4LFk5nqef3mKemB02IeX7RowYkayFjNi7Enc0BUD09pKgO3bsGJ9+uGqqQ1eKOXXNdHFS8TlIqKMOX7m3t2/fTtJ1QWPeXASf3A3H2g1d40p0IL3CNUrerdGcpWpEIaent75s18xxefBWtZHjtc9+WnqLk5UV+B/XLxcrQQO//9VkIZHu397gBqvkyxf46KULzPUwrjzklnclTj5nzpwkL2CU4+XOndvkBIBuwaSGFazZMDUKOQke21izDpfbmqo0Fie0mNPX1TAchlkkRXUS5Ovn52d2ksdMVHuYKYvRiopsecyp62neFJXQq8ZcV0W2peHnX5q50/Uxh4IT6OjUTW+J4eyGbixydnHVdyKaKEQCjzly015VPyRJMxgF6cKLN+eDwDzYysPeVwd0JzXpinijos9hajg5OdHMmTNtngAgCaAMmchXtDh12HnUpOsNoxuhFc6Jv5IlkxQKGzVqFDkYlCrNCaxtezix1alTh39XRAdQs27qCqpky5b0HKDOd8XUN3PWyeOk0GTeCsF5qiN4UsDXEkb/sXZNtjx5ueLBlMkwVE80X7GBsrt7JFEr3k09epvrQeCEoWhcoMTx8OHDb124SJB+8MEHZiUBVHagNd6WDZ5snz76sWiO+QpQ2y37TEbySvmkezm9TAVODNhU3mT//vsvd8Sam+AVbN682eZJvnnz5pzABslHbtidJsO936Q333H3cfX+5/Tw0lfsmeGalOgFwpCaZz7EMFo13W2poh5XZdgHJpeCxcsXuXEPuQaX5x3+jfHpEWPNPj0Iuib+9Rrx94WGhtLly5eTVD/t7e1tdhJAV6itG5LWSh6ozbqdJvP04EWhca5gSX2de9OmTd/qOaN2H30NaUXyw4cPt/nni5OaQvLIfZlrMEdy5EugfqoI5KF+3Rxy1yB5jD/MEj/yD4OYyugsxKL4ogQB+4TV5Y4xc2g5YAeFB/06OVBM8IkxqVZ84sm5rkcvknsFvbeHJqW3dUQiVv7555+nCQmEh4fT3bt3bZoEJk2apP6+EJQyVVkbEm0glfzFSvBng2xQm/8mO3jwIBUpUiTNSN4ehogbkfza9Cd5kG+dSZ/Ga8nXCtcnhE3JM+KzYk5eVZ1HA8ZYihcPy68kX3N5+/DgY3N0quEzURZZf8YXHDfNlCAOWrZHf/PXsRpq5PMXC+LvbNKkCasMvskwJap+/fppQgKIze/atctuauXh+ZgsXJOA5JHMfhvJb926VRXVMgVQhunr68vlsYn9Pcbk2bohwRxP8tvTneT59H78MmU2VMTl9vWntpv2pFpSPSHCxk/RPuszAiV0FmY7OAPt6ESVhrzHIk/myj5jF+1y+ByV6dqDZ0IqSZGOe06kyagwyC7k9vHn723VqtVbhaQgVuVo4jm1bwISsLY8mWr+/PlqrXzDWV+atGQuuSQPiWBT1cdDq2bPnj18OsBGltgJARLFtm6NGzdWSR76UL3TMSavAM5lYKMIUjiuyjujTFYuDk6DqqpjvvzKc/5doK/OAq2RshA9K1XlsIk5s+KQNA4dNFz15vEATN0Y81qSP3hWnFh81bI2SMq+rcQurQge6Nmz51vJyZrtyy+/VDfN+jPnmWxeL5P82h1UoHhJ9dm+bcrXli1b1Lru1KBr166vdC8vXrxYbQyyJ08eOQ6luqazcObSQ6QssbLpxvOWx8tC129imGnwONWJXYRpFKFDA9akd1386wxax7c4OZEjJ4VNmGI2rQfs7IjPe1etqd6YFss38INIM5IvFE/yb9KQRzx+0aJFaUry8IS+//57SfIpSLy23biHCpYKTnLiFUqhpojJP3z48JXPhjBawiYrXJOtG3T1lZJRfqfTsU5eC4RplXxgviLF+NSXqkpCVjz9Xi3ZNeCaQFGdhRrEc2KUi4VKIEIq5ig1QkdYfR7qUMAwrKQkdT12Kc0mu+s9eZ8kefLwziAwZUoSd3FxUV+ExICJQ7acfF24cCFlNcjAoinNVJs7Yr8I+eEkis+GmuTb6uQhAw3vOjXPExPFXmf9+vUz+llMkbJlQ0kq7odSSGHuMY/JQezZW2o3dKYsWVJVZYNkLnp5/MIbaisGfxJoqLNwczXoLPBRi8sZTa2/zEO+H1Fw1x7xZZPDx6TddHdOvJ5ThwpAGvhNoRGQ/JQpU0xC7ohDL126lHMAOD2gLLN48eKv/BzkeJPajm+Nhg5jRQis6fyVJvP0EBaIO3+HAhtHqFK/b5sRgOeLum5zkXz//v2NfhY5AFs25K/QaczOTMkyZpMmSVFcXjgTjeYuiR9D2SqKeSe5Hbkcfrr+iPzqNNCKMP4t0FtnBZZRoJVyE6DHjBI3U45pQ4VNuy37yS2kvKpT027zvrSL24Hkj1wg1zL6utkGDRq80duDxvz06dNNQvIIUySULkDzU0KhMzTx2PKsWe2m2WLlJpPmftDNGBzTW/383bt3v1UvBiP7MqVCMRV49OhRouGahBuIrXe8Yl6CMue1aIvIdNWuScz77rDzGDkZZA7QT4G+iuRUErJ0xslr5FWlunaGNRQDRumsyFBOuVJZlIWFV4RYVmoTFNo243rT5qij2dBmjLr1tIvbPeJyKoSj8P2YAATv403Hz5UrV6aa4BH3TUxHBV59Qm8PHZi2rEw5evRo9Xfl6UEmDAlC9bDWhKk86g2fjyEWb5NzRkUMyh5Tm3hNaCtWrKACBQrEl4uKU6Ota9eMHTtWFe+r9t74dBka8iYHD42QRZu30avAZs1G4VPnJE1CxRCBiNy0Rx1IY8A/AqN1VmgQLbuvttv3H8bxrNQSMc9VFZ9TunO8mH7tj2ak+cOG8mHR5pGqljwGEL/JTp48mWqSB3En1mIPzx7hC+3PDh482Gbng4JwMS1Jidm23bzXpKc4OBEtV22mPP6B6qkoKcPZ0S9hihJKnMCQNAfB+/j4GP39N998Y9OlsTAklpVQXKs12yyjsiZBlU2dj2fG9+bE9aMeqOp7HbcZyD3u3B1uqHIq4KJ9pr9aaqlkUq2TwP+pIYTRH1OPi6mbyYkkLkI1+Yvq49DQs0Fbe1rv9thoFM1xqA/iSP8mQxI0tbXUDRs25KaqxEgvYTgIiUlbNej2qwJlRUwrUKYcp2PP3CKvyvEzWp88efLW64JIndbrTm1Dm1aUjJ2Z2rXpl19+sWmCxwQupVIJic2elx9YFsEbwsU4PWYzCIh5VqqmF1FL5DSJP0N9PRqngtp0SPic7wo01lm5YR7heIF/lWalsPGfGGpLH6XwBXzCzS/KjcL0KIRO0nq3x2aFTYu733LnplWrVr1x8aLWukOHDqmuqElMfAxDFrRxW/xcUgTTrNVQzVKtWjW91HBYuEmlhtXBIQ9/pVIdu6kxUzzfpOi4Y1KXOUpinZ2d7UJLfufOnaoz5FWlRrqqT77JCeh04Fv9MBEuF89BEUvXGuUdUaWF/26/4whVf38i5S5kFMr7S2C7QJDORiyPwBeK5AHi6JWHvs8kmWzvmxXabholxcLGTU6fmJ24FsiBKtcxY8aMNy5evJw4fpujyQkjBLVJP3i5b1NOtGY7dOiQKvRWpnMcdT99w+T5GC7RnTlfLdHFVKakGGrdzSElPWHCBLvQkR8yZIjayQy5cEupj0/47sM7rzRohPp8ao75WB/qu/WMSz7b7zzCf+ZR4RXhunuG+HtunY2Zi8Ai9RcVx89S0TFcoZKc0V7YQaP3nuQmBP1gEF9qsWKj2RUnX9eM1WbdDrX86d13333rAkZJI0obTTEcBMSOTQM109oQARJWqMCxZfvqq680m/wnZnu+yLsoYUHoyCQlZAPDLNaAgACTEXxMTMxbu25twdBrgiIG5ffGu25xBK/J22C+MOa+chVQRGteL5BFDh08gjxCqyR8jvDelwuE6WzYUHHzmfYXL1S9FjVftp6PxkkKt4gdFF2tyv8f0LBpuoRqlA0HuuPKDMakeM/w5jEU2hQvPkomlWHHCTtdE4vb24qhHBXVLnwqdMhCTRd+ZXKRKO2s16DIjmoVF/IeSbWjR4+yxkxqB4Tg5GbLz1NrmN3r4aGfGeFRsbI+f2ehJI/oARL+BUuHqDMs/Oo2VOUwEgChmbYC+XR2YJA9eEd7AxCrqjxkJB9/3tb0gCaVigPeUf/fUHFcSq9J7r0NSpTKiC5MEDpz5sxbFzJeWJTBmSNu6+7uzjoqtmwIhyhVLAWCSokXbZ/ZBkqgiS9i6Tqu4GGtEn//ZF0rxhT26tUrRc8SpzNIUyPfYi/Wo0d8c2P4tDnMCZZK8igH13a/vga7BdoIeOrszLIYMso/KjcD8p2oZEDoBdPRX1fzjPpUt2B9vDOHuwc1/mJZupE8d79dekBV3h2lPtQ1a9YkaTGfOHEi0S7V1AAt/uPGjbN5IkCpqtIogxcMR2SzneTQdo5hEQZvDYC3mRz76aefaMeOHTxzIKkdzZAxwBAanFrsxU6fPs2OEieZC7pR54NnLJbgtXmbqiPGJPYcVxrCMgV1dmzoisXMwm3aOH3WHDm5WgaZ6353XrxSMdFxT/wILs/Qqvxz6TkWjGcxLljJHbe4pnfeeSdJ9dQweNzwvE1B8Ei6om7c1g1NZV988YVRssvc3ZB4kcMmTuVyPkUuIrmGMB1KH8+fP08ffvghJ3EDAwM53AY5A+jjdO7cmRUnUR//NkVTWzTMyFWllPsO5VO7pZM8HIAm85ezw6kRFitpqeqR6WWOBkGzX4280uw5qWSHbnqJUZC4IZtda+I09WdKtOtE/e+/TN8jm7g2lEi5V9CLU6GqAqPgkmrokkztsAkQvK0LVimGnAcIUi+XEUAtVm40WzzeqJFFnBRyeHipJ6bkevMJNyp46OhtUID/RkObrTc5vc4Q5kRDId/fnLm4D6a3JVbVvEbMzqNiFa32jKek9cQNN2aFUk8fn3jKSEWbtaY263dytxjkC3gh5MrNVRUI7aR7KdWlB1S2Rz+jjsTkGMYGYjK9Q4IJV28DOgJRD2/rYlUJyUCVeGjWirqfuZkmSXd4bDXEqYH1zQVS4s1LS9ywuWm9eEx2QyNaLysgeVwjErDFWrXTvpv1DJEKaa+xygJ7BH5T6uoV5CtcVJC7PhabN6AwRW7YZX4vLinH+TsvqMHni1Sdk9jYWI7DJte+/vprCgkJoRw5crC3mDFeuEittMBGgE5IHPHfe+89uzrWoxMSLf86nsrjSDXHTjLLIOU3ndpyenmrjUlz586VDG0CwwQsOCucZ/PwpMj1uyxLq+atYnY/UZV3R6tjAQU+NuQdpb3F6hri9d8bjkBGhIckbW+DHkS6Z9nFy99p/2lVrAxJwcS6UpNq0LiBQBP0O0qXLk2FCxemYsWKsX5Knz59aO3atXzktzeD3C/IFffYrWwF6rj7eJqSAb4LzVFasbik1s1Le32lWevWrdV7iiZJljGwBi9eOeXdeU5NF66inJ7eyu9x0hCGlpZEqyDwqU4/0PZ3pWO2dKdYGvj9b5aTZb/3I1UaPFJtgR8/frxdVUakhaHZTP/8HahczwE04MFPaf9C33qmTvBBcxRK/qSlzJB/0A5jRyEF9F9MKUmeNnH5JzzvuaCmAsvQEyQtBdIIN3ADMXqr3vQvLGqQAMJGECDKXyxIrzFdsGCiksDSUma3bt1SpWcRtmv/zaF0C9VFbTvIVWBKLTu6b6Ul36DDo8xAcMyblxp8uoBDn9ZE8KqTd/8l+ddvrCX5upKyk2+ZFU8+p1chit53yuI0ppGcK9O1B2U0yBygK1OaaQzjFRVVwnI9+nMcND2fdbWRE9QXGnkU1LRLS7ph9kKJEiVIOZmHxPbhiUummjeR1kBndIV+Q7Vx+QmSslOWkNXHY0Mq6PVuLCxuh3ptdF8qw73hpdy5c0e+0ak0NJhpk+8YDoPStfR81hDJC2wcr/oZGRnJ8sfS3m7Pnz83agwrVKOO/pne+sEqCV4pvmg0e4k6LUrgiKTs5NtIvVaJA8u/Yue01A644K49KZNDFvXll5ZyQ2JTmbYEj6/u5M/Sv2zW4M2327qf8hcroZazohHOHpuYklshpZX0QK9Du60HrDZMo62XR2Nmbl9/7aQnB0nbybPd3PLtnJ3Cp8yyqHh8wocNr0TRjkajkj3VsZvaMAlLIQRMtOeaeEs5wYnraDx3KeeIuKxTOCDTpk2z24amtxlkkps1axavlporN8/m7WvFHrx2LaAxE1Vfmrh8OUnbyTPuiM2WJ68hA//Uoo9umA+qePPoaE1J3by9G3R4HB31Mq6OefLpZwTfeGJRLzbGwEHzXJE8ANFjDKM0Y8MYSnQqKzMPcCprtmi1ZT1PE8TlS0R15miDgeQHStpOuhXX6SeZUy6vQtT/wUuL39URny9UPUxtYsIRVVrSDacfVCgpXlHTBatMRgg4DShTe1ASiWelBWLDcCJ4ItFbTg29DXIb5fsMVstnAejrSNMbtHjCwsLim/sy6KjxvGWWN7c11aFaDH+fwtEGwzpYI6k76dYN3a94iQLqN6YBD362+AeOBYyBKEoXLDzSSZMmyTc+CQaVSWXGJ1Cx37BUEwI3zolNIu7cbWqzdjvV+fhTlqxGfgeCeEUiWvM/gyI7cA1+zdEfU7Mvv6aux6/EN929hvD1RP+ASnXoakT0ECKTz/JbFl9TpTgyO/B97W1FzU7JKaNGF75j3vzK7/udpO6k21yQPI8NHPYB75hW8dCFNwi5A2WB58+fnyVnpb3eIO5WsWLF+Dh83YYcEknRDN5L93ksYPNl66h051jKW7hoigTgsrt58gbQcPZirqpJbJAFSv96X/ueSrSNVkM3QLdu3eyyKQ55CfQPaAfXQ5O/1eqtNknwymaPf2oUKYF8kr6TZmeUGumIJWutqtQKtfPB3XoZtcJfuHBBsnkihtGI2tI61zJlKeb09eTFyHkG8A2K2rqfynTtqc5nNRUcnJx4w2i37SDFnr1tRFi9DWG6Ml3jtEd2qlSpEpfS2voAbsUePXpEw4cPj79vGXQ8QjHqm0M2F6JJCHThsyJthgzK799A0vfbLZPAT9xG7ugoPLNrVrdQ4OX51q5n9NJjYpC0eLt06RKFh4fHT0UqXpI67j2ZZK8PpyYoF7Ze8w2HXnRmmLqVUCyuZIeuTFyIyatrUlwvEnBVxInT2SU+pwABLni2SEDaqv3222+0d+9eqlIlfrYp5iwENoqgLkcvWJXoWIrFyu7/RMFoiDSMixT4QFL4262sUlmDTtcB3/1slQ+/28kr5GHQnAcgLXz16lXJ7sKOHDlC1apVMyL4tpv2Ji3RapB6hVgZJGo1L1eaAEfz2h/P5DFw2gatgQ9/pcZzlr4y7xMDuc+dO2dTZZb4XSABPXToUCPl1BxuHiw41uPCPavTo0mNWFndTz5XhwgJbJYU/nbrKvAHbhiSrtYSj0/Mm++w67hRHW2tWrU4MWXPBnll7RhE93KhPO0+KV4fx8HFRoAQnqthJGR6AC90+V4DxSnzutF1Y6123H2CijZvYxS+8Q8IoClTprAej7UbJl199NFHPPtWm1zFybXZ4jUcvrKlMsmknCihbZQ5m6NyPx5ICn+7TdUZpIZDB71r9lFv5q64abtlnzpFSmcYJbd9+3a7I3eMwkMdfN68edV74VurHrXbdiBJz7i3YVoTRK1yenilG8HHE1tmKtdrAHv02nAiXnpU3tQcO5lcSpYx+n+qVq1K06dPt0rpC8woHj16NOv2aH+n/EWDqOrwMdT16AXD1LZHdkPw8VPEnqiD3w16WzL5+hbbpTMMD0F3oXXH9fRlfGjjVrTnAR9fX5o5c6bdEPzRo0epefPmHNdW49vtu3BbOBLVSZ2ti/WAkEB6E3y8R5+FQzeYFPZKXT5USjfvo5DYvuSUL398ItfBgWPYmIx09uxZi35ukCTYsGEDxcXFUVBQkNHv7uziyqeZNut3qX0GdkXuCZqiCpYKVu7N/wnUljT+ZruuLKTOB87YQHb+EetPQ0WzSNOW6ksCMbPo6GgeomCrhlJC6Oxra+CzZM/BHaOookFjUtKF4PaqujGWBAyO6LDzaKLrFMQXd/4uNV+2noLadKBMmnGP0KZH2Kpt27a0cuVKevnypcU8t1OnTvEmhIamhIPn0Ykc0r0Ptfp6G8fek/oMbRkI06GU1nCP/pKdr282d0NDAUt4prfyoKmnScWcus6dkkqyEEkrvOgrVqywOYJHSAqTrRSZAk6wligtyGEre75JjdsiTBNz8ip7/pZG8GrzVv9hgszvvCHMpH/20G0p3jpKW26n9lNAhrdjx460evVqevHiRZo+K0wd27dvH4+XDA0NZVkO7XPTJ5w9KXTgu5wgx5xd9tyvPbJ7glecEDguhnuFmdXzJZW/3qoJPFUqLmzNS4C3B4JrNGeJUT03xgdCyAma29ZuGIOI8W558uQxIonyvQZRzIkram17cjbHiKXrtPogFofsbh7U9dilJDTOPKJYQZBR2w9T2Z79WZfJKPyTKROf8CDvULlyZZ6MtWnTJpYJMKVhE9m5cyefsurXr0+enp78vLLFa6NrEuMVKXzqHOokTtU4lfRO5vOzi+SrcEZbrNiovW8nJJW/ubKGa+QLN21h03G+zofPk2+tcKM67Hz58nFZmiUd3ZNqd+/epS5dujBJZdB4qq7B5Shy425D12jyyQFhHcgHWCrBK2gpvPTkdOrifsAjbvDZAvKpWdfoninrASEdDHiHV421gcQt7jHmAS9YsIC2bt1Khw8f5mY79GEowH8fO3aMtmzZQosWLWIy7969O5+s0JGKz8PnIj+Q8HvZ6SjkQxX6DaGobQf4OtEXIMn8zclXbN6ae3hfUvnrbZxSPompK31svBQLm1i96XPJUZOYU47viIlacrwe3Zyol0byEHFlbb20PjFXkGpNnCZI4l7KB3WcvsnxboQKLJ3kq44Y80oCNjkkgXLM8KmzKKB+Ex6Np+8czWDe68bnCyCB7FmxMkuI8JjFG0+kt54CJVpFglrgiUARSeeJ2xJDTIvqzfjC5luilXAERLQweMTB2ZkyGKRZAScnJ/bA0EyDzsn01kRB7BYVF5iING/ePCpf3rhWHdcOcufQzKnrqZejEJ4xKmosneCBsrF9WTsntZVYaK7BP5ForvHBh1Q0og3lDShMWXLkJAcnZ67HRp0+wlfI7eCeQyTtFYg/x9/j5/Dz+P8g0YDENwZdBDRoyo1LLfgEopfjYCVOSe4pjst7hqoNfj8KNJZ0nrjtU16ayPW77GfBQQNFvNzRe09xYg7x+kwJYtCoT0YTCo7imJ4E0jd3FyW89d9//51JHUJiixcvNiqFjNd3cWbigJpjl6MXudXbFM8u7sJdqjTkPasg+fK9BwuSf2DSzR/E0e/eSxrw8Bfe8KK+OUiN5y2nmuMm80m3VHQMFW0RSf71GpNv7XBuSALw30UiWom/7yZ+bhjVHPMxb5bttuzn0wZK/lDTjjUnE6imOpX/wLIXhvXwm6yweb1mzWnlpel+6rpdJnDwUrfffoRKd+pO+YoUV6WLtShVqhT17duXq3JOnz7NBPz48WNuOIK3nVIvHf8/PgcJYHzuunXrOPmn1SbR1ogjjOIZWoVleqH+OODhr6Y5fRlkghEPxn2wBpKvMXKCmlw3l+IhCJmJ/+4LHomIzRQy3CBtbAQq8N/f/cx/j5/Dz7NuvvTUzfjuPqEaY9QKGzRzfi4p/VXzFrjMnqFz9hTLzdqKVwDCxGSkmmMnkX/9xjzQ2kHTKq8FyjAxpGTQoEE0depUrrtGUm7Pnj2cmEO34smTJ1UcP36cDh06xH+P5Bw2C4yxw/8PTx3lfJkT0YTB5Ktc3j7kWakalY3rRy2Wb+BjPrxCU5CbEq6IO3ubonccoVZfriafqjWsguSDGzWjFnMWU5f9p6kPWvuvP5HkZ0fA+o9Yula7Jr6RlP6qVRS4jRsED1Zm9PXeAbwxxLbbrNtJ1Ud9yOEcCJ9lT0LnJ2L6KMfz8fEhPz8/FYUKFWKVRGdn57d+hnNBN3INKU9FmrWiykNG8gAIlNLBg2Q5AhN4hkzuwtvseuBbajF3CYX1G0IhdRtQYGARyp2Ea0xvODo6k3dBV/Lz8KSKLSIp4tP51O3oRXEq+1GGQuyowgaznjXr4oyk9FetqcAjbvsPq0s97diTT1R5URA9PGYcuVFxgtgsEnPBMb24IgNa7DkEyWiEkpIFCGpB9dMtpAIFNmzKmvjVP5hIjeYuZQGmnle+4w0HnrspQxJ97/5I3U9epSaTP2OCDAwsTD5iY/ISpOnm4kY5c+S2aIIP9HGlxrVCyc+7EHmKjdfHzZ0CfP2oclQnajV/BfUSzkqf27Ir1F6QOb7X4KqhuVOaxmIEXuAGobtRkvybpXZBtopCJ8I67Tbvo+bLNzAph0+dzWGeSsLzRodtcLeevBkoKBvbhyr0HUJV3hlFYeOncBknNg1UWkRtPcBjDBEuQzxXSc6ZOpar6rus2kyVIjswufu6e5CnqwcVLOBGNUNDaHC35vTRkI5UorCXRRJ83tzZafmUvnTlm6m0euZgimpSS2xM7uTt7im8eg8qVqoM1ejRj6K3H+bNTHr1to98hYsp6+OeITohTWMjdHoFN6o0eIRdx+STr4L3mIkYpMnDqUHMN55yyAsVKmjUwIANFWdvs+4I7rH+/3nO3cUsNHXjqd5TNyMhceevuDZ470HlKpC/lzcVEsQIco9qEkZrPh1CFzZ/Qo+OzKFfziyihR/2sDiC93DNR0sn96Ffz31J/1xZTn9dWka3d8+kr2YMovBqFcglvyv5ipOVfyEfKl09jJpNn6OGpuS6tV341W2grBF07reUtG5sU5Qa+TqTP5Ukb6IN4I1IJ539HmLjCX9vLAUGBJKfIHiEZaqWL0NrPxtKDw58Tr+fX8yk+cfFpfTnpaX0/OR8eie2mcUQfLXyRengitF8nbjG/7uwhIFr/U382S1B9jNGxlARP38O4WATK1y4KFUTJ6ruJ65SbztWbLR1aEZ//iwwQNL6q41QfIOafblaLhgbBTpgQfAgd8DD1YN6tm9M13ZMN5DmEpU0FYBIX5yaT2P7t6YsDpnTNTwzbUQ0PTv+heG6Xr1W5Xp/FieQ0+s/oshGNcmtoLv4XQuxV1+mRi2K3n7ILhr97BHoSdCUUU6StG5s65SXCU0bcsHYHjBMo/HHM8nHzY0TlcCY/lH07MQ8I4/4dfjr8jLau+R9KlvCL03JvWD+XDRxUDt6emwu/f6WazQm+yX8u00Z3oWK+vuTL4he/M6FixajNsvXyxi9DaLpwlXatbNM0nq8ZRHYrtycrscuygVjg2j31VZOroLcA319meB/O7eY/kwCwWtDIgjlrPl0EFUvX5SyZnGgTJkyJiq0pUvBsG5o8ODzcmV3pNb1K9KGWUP5O/8U3/l/ySB4Lf69uoK2zhtB1SuUIV9vPdH7eXlR888XyXVhY0Dlm2ZNbZPUHm/5BfbrG24cWD9cLhjbyg10P3GFq00Qognw8aH+nZpyUhUEmhLi/PvycqJbq+nOnpk0fUQnahIWQh4F81LunM6Uw9mRnLJl4Q0A4Z3MmTNR5kx6OIh/x59ly+pATo5Z+Wfx/3gUzEO1KgbRiB4RtHPRCD5Z/O/6SvE9KSd3LUh81sWtn1CLetX490foxtfNnZpOnR2fP5FrxerR/dsbWpI/KJBb0rvefASOc/NNAReKOXVNLhgb6wasHttH78ULcmseXo0eHJzFVSmpJU949SBjur2a6OYqurlruvCa36U5Y2JoTL/WNKhrY4ppU4u6tKhJnQV6RoXTkG5NaMKgtjR/QhxtXzCCbu2eQf9eW0F0Zw3RjVV8Xa+Lt6cG/4nveHxkLnVuFc4nGRC9n6cXNZ02x+wVTRJpRPJnbvJoRAPJfysQKOldb6UEznFyK7AI66DIBWM7KpsdNu/lChOQWtmSxWnHwpFMyKYm0T/Yw1/GZAqypptfsbdPt78WBG4ANgP8Gf7u+ioOpSDW/8fFpSa/nsSADQRJ2V7tG/OGh9ANqoxaLVyVetVOiXQHypMLllKHnV8TqCTpXW+VDR1iPIkGu6FcMLYiwfqcKraM1JOZ8F4HdW3OJJsWhGqpwKYCoo9t15C83b343gSVr0gdtuznHge5bqwXGAPpH95IIfnvDJ380oTVFbiDG4NpSbFnb8kFYyNefKedR9lThRcfHFSMbu6aabI4t7UT/eOjc6l1wxrk6YamqUIU2jqK4oSDI8XNrLhE+MI9Kh0do5A8Ovi7SHrXWzOBh7gxRZq1pthzt+WCsQUv/t5LqjN4BAX4+TPJ9+nYhMMk9k7wWqJHZ2/5UkHk4+HFDVONPpyml0CQ68dK+0DuU+Vh7yskjyl3QyS96y1K4AfcGMzzxJFHLhgbIPk7z6lMjdr6BKO3Dx1cMVZ68QlLQi8upVXTB5Grixv5enhQuUbNWK5Yyh9Yay/Id1R38mfaCpsPJb3Hi5PxAG/olENvRS4Y6w/VgKyKlQ7muvgyxYumWXLT2vDk6Fxq16QWSyAgtNVkyufSm7dWXHlIzZcY6crPkvSutz46/cgsCh00PFXDnyUsRAv/9jNqtegrKlK8BHd6doyow1UvktRfBeQcts0bwQJt6Aau1q0Hi8pJ6QPrBKS5NSS/VCCDpHidbpDAnzqeej+W41pysVh5qObuC2r00XQqXKQY+Xh6c3erKeribRE44dzYNYNqVSpLXgXdKKROfeq49YAUMrPSxj/MataQ/HqBXJLidbqRAv/DTak1cRoPG5YLxvqTruEjxrBOfCFPL5o9Nk7G499A8gjZoLzUvYArFStZmtosWUN9bslhI9ZI8p0OnKFsufIoJL9bwEtSvE43Stn56kz+TJK8DQADyeu+8wEFBuhJft74XpLk39DE9fL0Qpo2ohsVzO9KAb7+1GLOEjlRykpJHkN88vgHKiR/TKCYpHidbqJC8g0/Wyjnu9qEJ/8j1R81kQoXLiJI3ps+ebcL/S3DNa8FdHzmjuvJJI9hI5gT2+e2bIyyRnQ9doncylVUSP6CQAVJ8TrdZIXkG89dKkf/2UT55AtqNmMeFSlanHy8vKlfdFP696ok+dd58i9OLaCPh3Ui1wKu3FeAgebSk7dOdDtxVTsh6rZAbUnxOt10heSbLf5aToWyheqaWz9Q+/U7qWiJUlxCWaNiCP0jSf61MflHh+dQz6hG5O7iSsWDy1Lk8vVSy8ZaRcpOX6fibdorJP/Y0Oxp9zZTIfnmS9dJkreFOvlrjzi3UqJ8KDdD+Xv78PSnlEoLm4pMWY/+8jIG68SLPzOH4mRyrwvDwMuVCiLvgm5UtkET6rTziGyIslqRslsUHNNbOwawvaR4nW62QvKtv94mF4qNoP+Dn6lKx24U4OvHRP9Bn7ZEt9JO1gAkjhAR3dBLESPx+8PxefTgwCy6t+8zenrsC/rlzJesRMnqlDdWcS3/X2mcIMYw8AUTe5NrATfydXOjsD6D9MUHUnrYSkXK7lKlwSMUkv9HIFZSvJbk12yXC8VWQjY3f6C2qzarJB9apiQ92P+5WUkUxM5Sw4K0QeAn1kykZZ8MoHED21O/Tk2pa6t61L5ZbYpqUou6tAynuHYNaUDnZjSmXxTNn9CLdi/+gL4/NFsvRSw2h7Qg/Nu7Z1KlkFJUyN2DB6u0/GKZVKO0Zv2aS/cpbNxkba38QEnxRiT/jVwoNoNH3LVZtmETJvkAH4PUsIlFyhDuYG9cfO5PZxbRN/Pfo/fFqQFDtGtXLkchQcU4LwC1Ry93T/L28GJARgB/BqArt1TRIlStfBlqWqcKbwjLpgyghyD8O6v58821KSEWz9fg4UmVozpRj3N3ZLerNevXXHlI9WfO05L8e5LiJcnbsIbNU4pau538PD2Z6KFhs1yQJwZ4pJYgEX5BiAWjAHcvHkXDe7SmOlXLU4XSJaiInx+XbnoLUvco6EoF8+XnTSagkC/5ensLUtcPMXHNX4AK5M7Df+/uUpC83NypkNgAFGlkdKH279SM9iwZRf8TJwRMoTKVBg+GlqCihkcBenpRUNny4uSzSTZB2UA+qtmXq6VIWQKbr9yQthv3sAcoF4ttLfqavQaQr7s7T0OqKrzl7QtGpmh4CMb9KZOfTq//iEb3a0c1K4bw5gFih0fuIwjT09WN3Aq4UJWKoTRsyFDauGEDubi4UKZMmRgFBLn/9eef9PjRI7py+TJt3riRPhw/gZo1aixIXmwMLq78TwzeLuzrx5/fOKwSfflxX3p+cj5/f2qSyDh1THuvGxXx99cPNg8sTPVGjpcEbwvr/foTarV6q5bkUVjiYM8En1FgkXJD2m8/zKQgF4uNJaPO3aEyNWuzRw9Sq1imBC37pL++0uXSsjeEYvQhDTRS4Z9nN06iD4dEU1ilECoeGMAErJcy1pM7UKtGTZo+dRpdvXqV/vzjT/rv3//oT0HoIHllnfmJDUFr//33H/3zzz/0z99/05MnT2jVihXUMqK5OAl48Gfi8/E9geL7cO3YXG7tnsl6PMkhe5wCsEmNH9iBCV4fxvKjqtEx+moaufZtguTbrNuhJXk4sTkkyUuSt/0mkSMXqETFSuTn5c368iC4yEY1aNOcd+nZiXmsxvibBr+c/ZLLLr+aPphj+aHBpVjsTCFcJc4P4g0tV54+nDCRrl27SonZs2fPKH/+/LzGMmTIQBUqVKCk2P1792jC2HEUXKqU+p0cXhHXgO+OblGHts1/j376diFf/+/n3xx/R5IVipz4f5Xrr9i8jb5sWK57GyH5xxyRcHByVkh+pUB+ew/XzFVIPnL9TrlQbFjXo9vh81S2YVPyB8kJokRsHElHH69CVKVsaWpSqzInPmtUDGbydnf14GQp9G8QivErVIgK+/lTUJGiVD6kLL37zjt0/Nixt5I1vPq8efOqJN+gQQNKjsHLXym8+6aNGlOxwMJ8bSBpdPN6iGssVawIDewSQV9/OpRu7ZnJpZrPDMCYv6NfTaBhsa2oWEAAb1Q889Y/gCpFdVLvjVwjtkPy7bbuJ6f86slxg4CHTLzKxKvdDBPBHMzwkeMoqFxFHnkHwvNDqMXDi+PgIEEmdOHtI1QCQi1ZrDhVEKRet1ZtenfoMNq/b1+ySPrQoUOUK1culeQ7duxIKbXjx45Sty5dqLAgaSWB6yuu2UtsVu4F3bnePahwIFUtV1qcPkpSoI8f/xn+HglWbHBFS5Wheu+P10sXSIK3OZJHRCJXIV+F5HcK+EmSlyRvV4lY6M0jfNNg7CSq2LItlalZh0pWrkYlKlRiovf28GAvGXHxQf3708L58+nc2XMpJuaNGzdSjhw5eI1lzJiRBgwYQKmxGzduUJUqlcnZ0ZG8xWYUVL4iD0jxR+UO4vgChVCp46b/d5RHYuoTfq5Su2jqsHkf6/vI9WCbJN9h1zEqINaDgdcOCRSVJC+boezSq4ckMdD91HXqtOMINZ+/khydnChLliyCPL3JVLZw4UJydnZWSX7ixImp+rxr165RaGgof15OQfItF39NjSfNpBpxfXjTwqzWkPCGFFKvEZVrHMHEXnf4aIpat4P63n7OjWJyDdguyWNwiFvZCgrJnxYoJUleyhrY/YsBsodAXYaMmXgtVK9e3WQkP2nSJHIUXjc+FyWUCxYsSNXn3b9/n2rWrMmfh9hrtxNXWF6534OfqeflhxRz9CJ12XeK59zGHL/MpN7v/k960TEZnrH5kyoGh3hXC1NI/pJAOSlQpgiULZMCZfYrT/ycqo+ayCQPbzsuLs5kJP/OO+9Q1qxZVZLfsGFDqj7v+fPnVL9+ff68zOJzOx86Z/SS45SCRjD+53VZGmlvJI/BIf7iFKeRG65i7yQ/TZUa/lJKDdsr+t39kcr1HCBIPiMT8bhx40xG8rGxseTg4KCSPBKxqbE//viDIiIi1FrozgfPymcooZI8BocUadZKWR+PBMLsneSnKC9LkwUr5NAQe1WtvPeSSrSLVkl+zpw5JiP5Nm3a8Gey5505M125ciXVn9m2bVuV5KO2HZTPUCK+VPjEFQqK7KCsjxcC4fZO8vHj/z6X4//sluTvv6TirdpRhgwZmYgXL15sMpKvV68el04qJI+u1tRat27dVJJvsXyDPIFKqCSPwSGlO8Uq6+NXgYb2TvLjlZel/ox5kuQlyZuc5CtXrqwSMj4bMgepNZRhxjsni+QJVEIleQwOKdujv7I+/hVobu8kP1Lgf7ghtT+arh+YIBeLJHkTknypUqVUQkZs3hT2/vvvqyGg2hOnSedEQiX5uPN3qGL/oVr9mtb2TvLDDbsdhY37hHpIkrffmHzbjmpMfv78+SYj+aCgIPWFQymlqcsyq7wzSjonEuochR4X71OVYR9oSb6tvZM8Jqf8iZtRdcRYvkFyodhndU3ZuL4qyX/00UcmI/nixYurL1yBAgVM8pmzZs1SpRLK9RwonRMJFTjVVf9gopbkO9k7yfcR+B03I3TQcEHy9+RCscs6+Rdikx+n1sn37dvXLCQPyWFT2KJFiyhfvnz8mUiySedEQouaY41GAMbYO8l31+mnmlO5XoNYwEouEjsk+VvPqOGsRZRBePGohGnYsKFZSN7X19ckn7lq1SoqWLAgf2ZQZEdJ8hJGkh11P/lcS/J97J3kOwg803tE3XnauVwo9vliQL0vgyGZGRAQYBaSL1SokEk+c/369eTh4cGfWbhJC3kClVDR5+ZTqjd9rpbkB9k7ybcReKz3iDrwFCG5UOyzKgFQhi3kyZOHnj59anKSx/AQUxikERSSL9KkpSR5CeNT6eeLtCSP4pJM9kzyTQS+U16W2HO35UKx4zLKgqVD+MXInj17qjVmEquuQbJUkryEWT35Wz9QozlLtCQ/Smfnc17rGER8yKdWODcSyIVipx7Q7WdUNq6fWs/ep08fkxAyxv0pLxxkjE1N8oUlyUskIPnGXyzTkvwEgWz2TPJQaLuGm+FRoRJ1P3NTLhQ7jsu3WLlRfTmCg4NNQsgY96eVNYDAmCkTr8Vbt5eJVwkjkm+6YCU39hnW8iQBJ3sm+RCBC1zeVqIUdf/2hlwo9owrD8kxTx5+OVxdXWlfMkf9JWadO3dmcldI/t69eyYZRKKWUHaOkyQvYUzyC1dRRkMRgUFpN7s9k3wxgW9xM3L7+LG4j1woduzNX39MpTp0VWWBu3fvnmpCbtq0KdfeK595+PDhVH/m1KlT1WlTFfu/IzteJTTVNT9QxJK15OCcXSH5WQK57ZnkCwkc0xmm7MScuiYXip1X2bTbekAN2ZQoUYKuX7+eYjKGLr2Tk5P6eQjbdO3aNdUkP3LkSFW7ppbUrpFISPJL11KW7CrJz7Z3ki8gcICP0tmyUczJq3Kh2HtbuPCKlfFpCK8MGzYsxSGVvHnz6skdTVYGbx4e+KlTp0wmNdxs0WopNSxhVCcP+WnHPHmVNbJYIL89k7yzwC7lhYHgvlwoMi7fXLwkypooXLgwHThwIFkkvHr1anJ3d4//jCYtqFD1WkZJ3ZcvX6aI4O/evcszaJXP6rjnhHxmEkYk33LlJnIq4KKskSUGZ9aubYvywnQ5fE4uFAnufC4S0Vol0kaNGtHDhw/fSsDQip83b56aFAU8Q6tS7Jmb1Gn/t+SUv4AatsEIvxcvXiSL4J89e8Z5AlULp2QZ6ZhIvEryqzaTs0tBZZ0sF3Cxd5Jfp7w07bbslwtFgmPz7bcfoZxe3iqhdujQgW7duvVaAr527Rq9++67XAuvEnzl6tTp4BlO6KLqocFnC7QJMWrWrBldunTpreT+yy+/cKVPy5Yt47XpHR2p8bzlMh4v8QrJt/56G+X0VNcu+M3d3kl+ufLiNF+xQS4UCTVsg/bwbLnzqMQaFhZGy5Yt4zmtjx8/pu+++46OHTtGn376KVWqVCk+wZoxIwU0aELR+05RnxtPjFrOIQObJUdO9WdLlixJs2fPpjt37rxC7levXuWa+Li4OLUunpuqsuegau+N0wvqQZJBPi8JLcmv+YZyeRdS1staATd7J/nZysvTcNaXcqFI6Msprz1mnXZMXtLEN7laBiP9EG5BGEerTQNgUyjXcwB1PXqRvfdXm64ec0VMTm8fo7GA2EBGjx5NGzdupLVr19LgwYOpatWqlC1bNqPPzxtQhK8JXa44IchnJfEKya/dTrkK+SprZpOAh72T/McCf+OG1P5wuqxUkDCqm0e1TeO5S8m9XKgR2SYG39r1WTcEMX2Usr0uFITPjVi6jvzDG77yGUjYohEr4Z+jjwObR+T6XepnyGck8QrJ33hKkRt2sTNgWDvbBbztneTfE/g/nWGUmiR5iYRE31uQavTek+xBB9RvIo7CvpQtT15OpELUrHR0DMfHOx88y57UWwmYSfoJdTlygcKnzCLvajUT3TQyOjiQf/3GVPujGdRu8z5WSeXTgQzRSLyJ5DfupnyFi0mS11hfnTI4pEd/SfISr9W2QZITYZgOu4+z/nz7HUeo0/7T3CnNm0EyvWv+ebHeQPatVm+jyu98QH51GlDBUsFUedj71G7rfv6+nuJnsHlIcpdImicPki8qSV5j0TrD4JCgdtH8QsnFIvFGL9wQLlG8/NSSr/IZcRfuUYzYMFAWGXfhrn4TkMQukSySf0JtN++lAsVLKiR/UMDP3kk+QuARboh/vUaS5CUkJKz6xBm19YA4DYYoJH9YwN/eST5M4D7LDZcPFSQv644lJCSsnORLS5LXWrDATS5PCywim0skJCQkyduY+Qpc0StRFpAkLyEhYd0kv+0guZYuq5D8UYEAeyf5vALnuWQtUyZJ8hISElZN8qj6wqQ7A8mfEyhq7ySfUeCUUpsce0bOeZWQkLBeku+w8yh5hFZVSP6sJHm9HValW3cfl2VrEhISVk7yVSTJJ7BtCsm3Wr1VX7csF4yEhIQkeZtSovyPRcpmL5a6IBISErZC8mckyetthsBfLCc7/hPWFZELRkJCwlpJ3jOe5FFUUkxSvE43ShEpCx04nG+UXDASEhLWJ6j3hMX0CtWorZD8dYESkuL1ImW/4KZAUZDFoOSCkZCQsDqSf8zDanxq1lVI/oZASUnxOl1bgR9xUwIbNZMkLyEhIUnexqyuokSJwcuJTfSRkJCQkCRvvRYi8Jj1a/wL8yxOuWAkJCQkyduOeQk81PGMzrzU9/ZzuWAkJCQkyduQOQvcw03JkCEDT1eRC0ZCQkKSvG3ZLaXrNebEFdn1KiEhYZ0kvxckX0eSfCJ2TiH5qG0HZNerhISEVZI85g771q6nkDyc11KS3vW2W+B/uDERS9bIkI2EhIRVknznQ+cooH4TheS/0+kHI0kz6Nf8ixsTPnU29bkpyyglJCSsj+S7HD5HgQ2bKST/vaF6UJqwaQJ/48ZUGzlellFKSEhYJ8nDk2/QVEvy0pM32HuKSFlIXD/qe0eWUUpISEiStyWLEfgDN6Z4y3bU7+4LuWgkJCQkyduQRQj8jhvjExZO/e79KBeNhISEJHkbssoCv+HGFChRmvrf/0kuGgkJCUnyNmT+itxwDndP6v/gZ7loJCQkJMnbkOUS+Ak3xsHZWYZrJCQkrLdOXpL8a4015TNny0axZ27KrlcJCQnr8+SPnKfARhGS5F9jD3BjMmXNRh33nJBjACUkJKyO5Lsev0xFm7dRSB5zMspJao+3b5nks2SlVqu3yQlREhISVkfy3QTJF2vRViH5nwUqSmqPt23Qr8nkkIUazVlCfW/LrlcJCQnrI/mi8SSPPGMFSe3x9iVIPqODA9X+cLrsepWQkJAkb2M2mUk+c2aqPPR96ndXVthISEhIkrclGwqSz5ApEwV360n9772UC0dCQkKSvA1ZJyb5jBnFTYqk/g9k16uEhIQ1knykJPnXWEOB/zJkyEg+tcJpwHe/yIUjISFhPSR/7THFnLpGQZHR2uoaSfIaw834T5chA7mWKUsDHv4qF46EhIQVkfwj6v7tDSrZvotC8hiEVEVSe7z5MsmLm5PL25cGfv+bXDgSEhKS5G3InBWSd3YpSH1vP6de4qbJxSMhISFJ3naMRwA65Xeh2DO3pH6NhISEFZJ8Z0nyb7DnuDmOefNT9L7T1Efq10hISFgRyceevUWlo2MUkkdkoqqkdWO7hpuTLXceitywm/rc+kEuHgkJCeuAIPm483cppFsvheSB6pLWje0IbkzWnLkoYslaqV8jISFhVSTfAyQfY0TyNSWtG9tG3Jgs2XNQg88WSv0aCQkJa/fkJcknsAW4MQ5OzlRr4lSpXyMhIWFdnvzF+1Q2rq+W5GtIWje2SbgxmR0dqeq7o6V+jYSEhFWRfK8rD6l8n8Fakq8jad3Yhut4OlRWKt97EPW/L/VrJCQkrIvkK/QdIkn+DRaHGwNN+VLRMTTgwc9y4UhISFgzydeVtG5srZnkM2XiOYkDHkqRMgkJCesBensqDRmpJflGktaNDbseQW7YL7whDfxeipRJSEhYEcnffMpDjzQk30LSurGVU26OZ2g1Gvjod7lwJCQkrAZ9b/1AVd4ZpSX5lpLWjS1QuTkFSwXTIEnyEhISVgSUfVd/f4KW5KMkrRtbAeXm5CtanPrffymVKCUkJKyL5D+YqCX5aIEMktrjLbNyc/IGFuVMNaatyMUjISFhLSRfc+wkLcnHCGSS1G5sfHPy+AVQzOnr1Pu6VKKUkJCwFpJ/QWHjp2hJvpfBeZWmsV9wc3L7+FHnQ2epz42ncvFISEhYDcnX/nC6luT7CzhIWje2xzoeAehDHXYd45IkuXgkJCSsguTvvKA6kz6lDBky/H97ZwFexdGF4Rt3JwmBoEGDu7u7W3B3l1KkBYoWKO7F3aG4F3d3C1rcKaX29/xz5u7ebC4JmoTsvd95nveh0OTK7Oy3M2eOqCL/jcAJsh7ZLvPgeCZOQnXX7UJNeQCArkS+1OjJMmtfEfl+AmfIemQ7yoPjHpSIaixdj5ryAAD9xMmHP6Ey46bLIouKyA8xGPtXwzS2hwfHLTAhVZu/0tjQG5MHAKATkS83cabsiaGIPFfWdYesR7aNPDiu/gFU6edFaBwCANCPyItFaYWp88jFx1cV+QkCT8h6ZFvOg+Pil0A+Efm0GpMHAKAPkX8sFqcLyU0sUhWRny7whqxHtvlS5H38qMyYqRB5AICuRL7K7KXkEZRYFfk5cNe8a9N4cJy9fKjE8HHU6SZaAAIA9FKg7DFVW7BKhoArIr9LUFmQT5BNqc8VYO2x86N4cJw8vajooJFC5NECEACgDzjku8aSdeQTkloV+deCG4ILgmOK6K8xGPtZD1MyYssJUlmSiPsK0gvyC8oYjPWWaypwWc6VPDiOHp6y0I8sUobJAwDQg8hffUS1VmymBOkzarNe38cfgpuCg8p5ZH9BCT2VQkiuiPgAwSLBbuVpdl5wTXBLcE/JclV5LUXezZ0KfjsAfV4BADoS+YdUZ812CsiU1ViDy8uNyhfJRmULZ6E8WVJT6mQJydXF6X2i/6dG9IcbjD024p0VFYxWkpr4wz5Wnlb/feSTTeLg6kb5e/SFyAMAdCXyYRt2U1CO3FLHQlMF05GVQ+jO7kkUvmM8Xd46hs6uH0kHl/9AC0Z1oF4tKlHxvBnJ1dkxOsG/K9gmqPq1hT2dYIyyOueV+F/vE/AkQX6UO0sq8XTLSvUq5qcGlQsaqVJIDgpEHgCgS5G/8kDW3ArOV0jqWEiSQLq8ZQz9eW4BvT07X/Kn8ufvp+bQ82Mz6dHB6XRnzyTaMqsPdW5UjhIH+pprJi+Qf1e8IFXiUti5EH5J5SDhX8H/zMXc0d6eiuRKT71bVqZl47rQ+Y2j6MXxWfTyxGx6xZycQ6818Jce0bO+/F17ZxfZ9bzz7ZeYPAAAXdBeiHzjX49RsiIlpI4F+XsL3Rsthf2PM/Pey5vTc+n1KdbBubRjTj8Kq1SAbG1tzAWfdXarIFNsN/YorjxVTG/OVdeY4IR+1KZeKdo8s7f40PPo7/MLIp5iH/iS/DPj+jWRr2fn5EQ523ahLhB5AIBeRP7yA2q6/wylLFVO6piXu6t0z3yMyJtr4V9CO+/tm0K9W1eRvn0zsWdvSZ+YzqbluM5QwaZIvnN7O/L39aQaZfLI7cZfQtD/u7xYfsBP+VIQeQCA/kX+PrU4cpFSV6hq9EgIfTz1y4hPFnmtJv7v0iJ6eGAadW9Wgfy8PcjWJtLqfo8SrWj7pQKfQAntMR2eOjrYU+rkQdS1aQW6um0sUfhy+ufiwg+u1iHyAACLFflL96n16XBKX6OuSYhPrBlOf56b/9m6yPDv09WldGrtCKpaMhe5uThrhf6FEo5u+7l+d87U2qddvadNmYi6CXG/vmM80c2V0iXzJV8AIg8AsAgu3ZN/ZqzX2KSXh5YP/uyVvDm8qmfBn/R9M0qXMrH54WzNz/G911NCeOQL+Xm7U8OqhejwiiGKuC+MkQ8OkQcAWFL9mqxNWpkEeOvsvjGqk/zAYM/JvsUDqWT+TOZ++nqfIvAtBU/UF8iVKYRmDm0tfe7/XlwUox8aIg8AsBQ47DtH604m8V0xoRv9fnpujOslXVtKV7aOoSolc2mF/pmg7Me4aMK0Al+jdB46unKo2CoslkIcGwIPkQcAWITI335Bebp8YxLeWcPayhDx2NDM/4Qm39g5QWbUaoT+nJK7FK0VUkoNyF8Iq1iArm0fF2N+d4g8AMCyV/LPqUDvAWRjayu1bGy/xjI3KLZ0kz0rV7aOpQxKIqnCUmXB/o4FCU6ZVvBl8kiB/9KT4U8R+fH9IfIAAP3ClXOLDBhO9s7GCJhBnWvJJNDY1E4+Hz2wdJAMaddE3DQ3F3gnwURV4PNlS0Mn1474rHj3LxH5kd80jBD5NhB5AIDORP7GMyo5Ypwsl85a1r1ZRXp2dGas6ydnzI7u3VC7mt8u8DcPlZT/M1GALy0d2yXWDljfJ/Lftq4SUdagU0+UNQAA6Ezkn1KZcdPJNYG/1LIWtYrTkyM/x4mG/rZvigxx1xzCNtZG0+zk/8HZVO3rl5FZq2/jUOBVkW9dt6RSoMyV8qFAGQBAbyGU4U+o4vT55JHI6COvVS4vPT40PU40lA94p//QUruaX6iKfGb1HzOkDqbT636kfy4sjFOBV0W+WqncqEIJANB1nHzVeSvJO3lKqWWlC2amhwenxZmGctVLd1dTRuwdVeR/UuvQtK1XSiY6xbXAq0H+hXKlN5ZNcPegQn1/QGcoAIC+RP7aY6q5fCP5pTFqGTcLub9/aozp5Mvjs6M9yGWRv/XrRCqSO712NS/tNP8l0M+LNs7oLePho3uB2IyTZ5HPmCYJqe3/inw/jDqjxysAQEdwC8B663eZukOlC0kkfeVfrI/n5svXmdC/KQ3rXk9GPnJyqrlG39kzmUpFzoSV9pb/kiI4QL5IVBE17L55cvhneUocWxE3/CUSBfjID+bk5U3Fh/xEnW4+w8QBAOhI5B9Sw+2HTd2hggK86a4Q3i9OfLq8mOaPbG8S70ZVC9PpX4yu9b8FsiGJEP0LG0eL9/RRf+6VKvKyumTKJIGyS4n504GuLKHLW36SRcm46mT4zgkxVnDHHDs7YwKBs48vlRo1SYYjYeIAAPQCNw7hmvJqdyju6Xp796QYSXricu7azlGFc6anaT+0NFW6vLd/KnVqVE67il+ninw4/wPXhV87pYcsfqO+KF1fJl+Am9GqvzhlYPMYD6/kpxBvP9T3cPFLQOUmzpThSJg4AADdiPzl+9TqxFVTdyiG/eQxoZHcUY9FnbVaWxk4X9bU1LlxOapfqaD23x8KKqki/6MMn7S1oWJ5M8iiN3R9OR1fPYy+71CTsmdIYfpFZycH2r9kYIy7bPgcYN6P7Uzv4+ofQBWnL5DhSJg4AADdiLxSbjhl6fImPeOVPHtEvvRMk70sHCa5enJ38wqU5vwj6K2tMZ9U8FxmmtrZyoqTlUvkoNCQxLI5iGl17exEC0d3iLHD17fqbuHmSnn6nCNjStN7uQcGUbUFq2U4EiYOAEBX9WtuPqfUFauZ9Ky4WDzPGtZG6N3CaANbPiVAhRfZXK9mwaj2VLNsHvJwd9EK/G+CFgJX87IGlbWdn8wpVTAz7V40QKbOxsS2gw8RmF3zv6N2YaUpXcpEkZrWeiRKTLVWbpbhSJg0AAA90eXuawqtGRZJQ3293GWI+LY5fYlurPzyVb0Qel4ocwy+mkQq+Fsw+kMNui+ZXCYuTlStVC7aPPNb6dCPidW7mmS1YFQHypU5hLw93bRFdUx4BielsA27qcO1R5g0AACdifwrytyoRZQL5gQ+HtS1SXl6o3gyvriu/NWlVKN0bvX1/9CWMojOKqkfpleLyvT8WMxVT+Mnz/4lg6hA9rSyfILNuwNwRg3n9EqWghrtPCrDkTBpAAC6Evk7L2UVXVt7k7t7l+BPVevsbG0pa/rktH1uvy/21XNLQH/x4NCETGb5kMhzobJ/+Re41R/HzcdEqWEu0MMB/PZ276zaXwqmC3Ip78/bDfJOEULND5+X4UiYNAAAXfnkb7+Qtbe40KKic10FCQW/aPWPzzwbVStMV7aN/Syd5Z3AqondyCHi7PTmx7T+CxVc4F/IFppCRth8bsOQt2fniZ3ATDq47AcZ4mPWdPa+YIDAw+z9jf6rVGmpzblbMhwJkwYAoCuRv/WcCn83VGbuK5o2WBPp0lgJb/yf6QzSzZl6tqhEl7eMlZqpnl1+KHmU/+RAGRsbk64O/xiR9xPMVt983sgO7yRHfehQld0yvHI/u2EktQ0rZb5yfyNYIUgZxXv7mJqGpw01hk8q4UgAAKAXOFO/5PBx5OJjSlyarJx7qhag6OxzbcCLk6M9NatRVAakhO8cT48Pz6A3p+fJhTbrMMP/zQEwjw5Nlz+rJpAKngoCP7aRd0P1TYvmCaXzG0bJF377nicKH6iyuLN75+DSQfKp5ObiZL565xo5bd/zvinVnw/IkJm63nuDCQMA0J/I33hK5SbMJLeAQFX/FpuJvGoFBWsED8wPaDOmTkJdGpejRT91pH1LBtKRlUOkZ+XQ8sG0cHRHKpgznXlcfDvDJxiL7Q71BRpXK0LHVg2VQs9hjxznydDlJdLp/+DANNnomyNm+GddI4s7c10wSZDmA++bXf2d4LwFIPIAAF3CXojKs5aYasoLNgsc3qN9FQQLlOjGKEPZOcuVSxpoc5c0h60jDZ9h1QSP1RficpmDOteWQr52Sk9aPbmHzFAd0TOMmootQ+a0SaMKF7quHKqW+Mj3LMm/xw1wU5YqR11/+x0TBgCgP5G//phqLFknowQVLTz8AZHXBr70E6wWXFZW6NFltf4l2CtoY/hMs1MawT7SvjAXo+dKkQn9vcnF2TG6Nz+lHACU0KbVfoTVluUV7OwpXbU6MtYUEwYAoDc4v6fuul3kG5JG1cQrAsdP0EI+Gy0saCYYqCyWlwlWCeYLRgiaRHO2+Ulmr6yuV7wvG1bzJWYKGilxmraf8X5tZQypgwNladwSTbwBAPoUeS43vOMwJUgXqurjo08UeXPzUA5VEykPABtDDFtCZRvBjv0xgp+VJ8tQQUtBUUF6ge8Xvk8/KfJOTpS7Yw+0/gMA6LNI2ZUH1PzQOQrImEVbbsDJoANzUJ4oXgpu0ZwYf67xA4TsXVypYN8fqBO6QgEA9Cjyl+9TmzM3KGG2nFpvh7MBZpgne826uVPJEeNRSx4AoE+Rv3RP+uUT5cqrFflASLzBsFHt71ph6lzUkgcA6JZu996YukMppIPEGwxH1P6u1RetRZlhAIBu4TwfDgXXiHw+SLwxrl72d623fjcqUAIA9Cvyv72mdFVqkY2NqU9GOUi8sSKl7O/adN8pVKAEAOgWzvPJ1KCpttxwGCReicXn/q6oQAkA0LXI33lJ2Vt3lCHhisi3t3aB91NLb7onTIQYeQCAruGa8nm7fksOLq6qyPe1dpFPq4q8b6o0KE4GANC3yN96ToX6DSFHd1PXppHWLvKFpMjb2MjYUm6Ei4kCANArXFO+xLCx5OTppYr8dGsX+ersk+cKlCFlKqBuDQBA3yJ/4ymVHTdDRgsqIr/M2kW+lRR5OzvKWK8RfPIAAF3DyZyVfl5Ergn8VZHfYu0i34dF3laIfM42nVG3BgCgb5G//lgmdWq6Qx2ydpEfL0Xe3p4KfjsQdWsAALqGa9fUWbNdRgsqIn/B2kV+sRR5BwcqNXqyeAqibg0AQMcif/UhNdh2kDwSJ1FF/p61i/x2Hgg7R0eqNHMJdRRPQUwUAIBe4Yz9pvvPkFeSZKrI/27tIn/KKPJOVHvVVtStAQDoW+Qv36dWJ66Qd0SfV7J2keetDNk7OVPjX4+hbg0AQN8if+k+tbtwl3xSptKKvIM1i/wLKfLOztTm7E1ZdB8TBQCgW4SGdb75XGbwa0Te11oF3kcVeUc3dzkwmCQAAL3T7f4flCB9Bq3Ip7BWkU8jeMWD4JEoGNmuAACLgGtwBWXPpRX5zNYq8vmVk2cKyJxNFvbBBAEA6F7kf/udkuQvTIaIxiF5rVXkKwne8CAkL1ZSFvbBBAEA6B0utBhSujxxTS5F5MtYq8g3E7zlQUhXvQ6yXQEAFiLyryhNperENbkUka9hrSL/jeBPHoTsLdrLwj6YIAAA3Yv8nVcUWjNM2wKwvrWK/I+Cv3kQCvT+Xhb2wQQBAOidzrdfUtamrYnLtRisvAXgTME/PAglR4yThX0wQQAA+hf5F5SjVQdZrkUR+e7WKvK/GJTWfxWmL0BJAwCAZYj8reeUp3MvbTPv/tYq8vvVONJaKzajpAEAwDJE/uZzyt/rO1muRdG44dYq8hdVkW+086gs7IMJAgDQOxwOXrjfELJ3dlFFfoy1iny4KvKtToXLmg+YIAAA3Yv8jWdUbPBosndxVUV+hjUKvJfgFg8AJwx0vIbIGgCApYj8Uyr540RycDWJ/DxrFHku2HOXB8DVzx/hkwAAi4FzfsqOmy5E3k0V+eXWKPLZBfd5AHzTpMNKHgBgOSJ//QlVmDJXVtdVRH6dNYp8ccEjHoDEufMhRh4AYEEi/5gqz1xCju4eqshvtUaR51oOz3gAQkpXoA5XIfIAAMsR+apzl2tF/ldrFPnmgpc8ABnqNEQiFADAYmDPRI2l68nJw1MV+SPWKPI91VryOVp3pA5IhAIAWJDI11y2QSvyR61R5IeoZYYL9B6AbFcAgEWJfO1VW8jJ00sV+TPWKPKT1AqUJYaPQ7YrAMByRP7qQwrbtIecvLxVkb9qjSK/wFScbOo8iDwAwLJEfuNuqxf5dWpJgxqL11F7lDQAAFiUyGMlv1sV+fqb9qJuDQDAckT+ykNquP0QOUeI/B1rFPlDqsg3O3BGDAxEHgBgGXAgSdM9J8nZ20cV+cfWJvCOgmOqyLc5cxMTAwBgUSLfZM8Jrcg/sjaR9xWc5i/PjW7bnr+DiQEAgMhbkCUVnOcv7+LjB5EHAEDkLcxCBZf5y3slSwGRBwBA5C3Mcguu85f3z5gZIg8AgMhbmBUzKF2hkuQrRG0v3MXEAABA5C3IKgl+M5YZLg+RBwBA5C3M6goe8pdPV60ORB4AAJG3MGsmeMpfPnODZhB5AIDFiXzjX49pRf6BtYl8e8ELWUu+VUdqB5EHAFhY7Zr6W/Zpa9eEW5vIc8OQ1/zl83XvA5EHAFhggTLrrkI5wKA0DCncfyhEHgBgeSIfuZ78NWsT+aGCv/jLFxs8GiIPALAwkX9EddZs03aGOmdtIj/WoDQMKTtuOkQeAGBZIv9uj9dj1ibyU9UKlBWnzcekAABYFB2FyFdfso4cI0T+iLWJ/CxV5KvOWYZJAQCwLJG//piqzF5Kju4eqshvtzaRX6KKPG9pMCkAAJYm8pVnLtaK/FZrE/llqsjXXr0NkwIAYFkiH/6Eyo6bQQ5ubqrIL7c2kV+jinz9rQcwKQAAFkWn8KdUevQUcnA1ifwiaxP5tarIN9pxGJMCAGBZIn/jmQwPt3dxVUV+mrWJ/AZV5JvuP4NJAQCwLJG/+YwK9R1M9s4uqsiPsSaBtxNsVEW++eELmBQAAIui883nlK9HX7J3clZFfrA1ibyTYAtEHgBgsSJ/6wXlbNOZ7BwdVZHvaU0i76HEjBpF/shFTAoAgEXR5fZLytywBdk6OKgi3wYiDwAAliLyd15R+hr1yNbOXhX5MGsSefdIIn8YIg8AsDCRv/uaQspWJBtbW1XkK1iTyPsJfuUvbufgSC2wkgcAWBhdf/udkhQoSgYbG1Xk81uTyAcK9vAXd3RzFyJ/CZMCAGBRdLv3hgKzZFMFnkkPkQcAAEuJrrn9knxTp9WKfCBEHgAALID2l+9T2/N3yDtFKq3IO0DkAQDAEkT+ygNqfug8eSVNrgr8P9ZW0gAiDwCwWLi/a4OtB8kjcRJV5O9D5DExAAAWQsdrj2WfDLfAhKrIn7Y2kfcR7OIvz9lgCKEEAFiUyIc/oUo/LyLXBP5W2zAEyVAAAIuFywyXGjmRnL28VZFfYG0ij7IGAAALLk72nAr1GSTd0YrOjbQ2kXcTbEMVSgCApRYny9G2s7bMcFdrE3l7wSaIPADAUuvWZKjTkGzt7FSRr21tIm8HkQcAWHJJgxQlymgToQoYrNB+UQeg4Y4jmBgAAMvg0j0ZXZM4d36tyCe3RpFfYxL57YcwMQAAFlPSoOXxqxSYJbtW5J2sUeSXqwNQe9UWTA4AgOVku247SH5p06sC/1DgaI0iv0gV+ZpL1mFyAAAsIxHq+mOqsXittm7NUWsrTqbaz6rIV5m1BJMDAGAhiVBPqdyEmeQWEKiK/AolotDqbLzgfzwIZcfPoHYX7mKCAAAsIhGqyPfDycnDU5sIZWeNIj9C8DcPQonhYyHyAADLiJG/85JytutKtvamBt7tBLbWKPLfCf7gQSjU9weIPADAQkT+FYXWqq+NrCkjsLFGke8meMWDkLtjT4g8AED/4ZOX7sk/U5YqrxX5VAYrtZaCZzwIWRq3hMgDAPQfPnnlATXZe4oS5y2oCvxfAn9rFfk6Svwopa1ak9pC5AEAehf5a4+ozppt5B+aSRX580r/DKu0coK7PBDJi5aEyAMA9B8jH/6EKk5fQB6JglWRX6uUVrdKyycI54Hg9N+2F+5gkgAA9B0jf/MZFR86hhzdPVSRHyVwsVaRTy+4zAPhkSgJtT0PkQcA6D1G/gXl6fKN9tC1pbUmQrFxM+8zPBD2zi4QeQCAvrl0T0bXZAprqhX5wgYrNi7Yc1wdjNanwjFJAAD6DZ+8/ICaHThLIRHhk5zRn8Zg5bY/UrlhJcYUAAB0F1lz9SHVXbeTEmbNoYr8BUFSaxf59arIV1u4Wmx17mOyAAD0GVlz/TFVmbOMPBIlVkV+tTXHyGsrUf7DA1Jq9GRZbB+TBQCgy8iaG0+p1KhJZGNrq4r8MIGbtYv8YMFbHpB83ftS+ysPMFkAAPr0yQv9ytejr/bQtaG11qzRWlu1fk3Geo2lTwuTBQCgv5o196nF0UuUoU5DrcgXMcAMlQRPeUCSFSomU4IxYQAAelzFc8u/4HyFVIHnRM/MkHiDIbvgPg+Kd/KU8uACEwYAoMfImprLNmjLGWxCZI3REghu86DY2jtQx6tYyQMA9FmYrOK0+VpXzRiBOyTeaNfUgWm89yTCKAEAuqPNudtU8NuBWpFvDWmPsF2C/3hgqs5bSR2u4PAVAKCnQ9d71PzQeUpfrY4q8K8F5SHtUcTKF/l+BHW8Br88AEBP5Qzuy4x9TQ35k4JskPYI6yX4kwcnc6MW1Cn8KSYOAEBXIl9r5RaysbNTRX65UoARplhlwRsenOC8BanzreeYOAAA3cAVdEuPmar1xw+BrEe21IoPi9z8A6nTjWeYOAAA3dDyxFXphVAEnr0STSHr79oTHiA7R0dqfugCatgAAPTBpXvU7OBZCsiUVRX5S4JCkPR37Zgq8lXnLkfmKwBANzTYekDrqtksSAhJf9dmcBilrb09Feg9QFZzw+QBAOjDHz9NK/KTIOfRFyr7j0t0pq1SkzrffokJBACI97Q+fYNCa9VXBf6lomWwKCy3wdgqi3xTpaWuv73GBAIAxHtanbxO7gkTqSJ/UZAXch612aoJUa4J/GX2GGrLAwDiO/XW7dK6anYajL2rYdEYZ4mRk6cnVfp5MXW8/gSTCAAQr8kf0STkX8F4yPj7bSIPlr2zM+Xt1ps633qBSQQAiNcEZc+livwjQR3I+PutHg8WH76mLFmWutyFXx4AEI/j4w+f17pqLgiCIOPvt2B1wHxTpZGhSUiKAgDEy3o1Vx5QiaFjtCK/DhL+cXaXB4xPq2ssXY9OUQCAeEnH8CeUtGAxbWnhDpDvj7N5PGiO7u5UsM8g+OUBAPFvFX/pHrU4epnsnJxVkX8oSA75/jhrqG5/0lSuQV3uvsKkAgDEK7jsSqmRE1WB54ZHeyDdn+GXT5g1J7U4cgnx8gCAeEWXO68oScGiqsj/JegO6f54c1JOqckzOClVmb1M+r4wsQAA8cJVc/k+NTtwlpw8vVSRf6ssTmEfae+h1y4AAB35SURBVA4GY5dzsnN0onzd+4inJurYAADiB1w8sciA4WTr4KCK/G7I9qeZjaCE6rJJXbGa6aADEwwA8LXp+tvvFJQjNxlsbFSRbw3Z/nTjWswveAC5EH/ddTupw1XUlwcAfOUDV6FD9db/Sq5+/qrAc70tN0j2p5unYJmxjo0XlfxxIurLAwC+OhzSnatDd7KPCJ1cCbn+PLM3GHskyoHM2qytMcIGLhsAwFeMjWcNCsiURZvlWhZy/fmWXglNosR5ClD9Lfupw5WHmGwAgK924Fp+ylxyTRCgCvx95QwR9pkWIFhrzH71oPKT56DEAQDgK3FPinxorTCyiThwHQCZ/jKzMxjbaMkBzdW+G7U5dwsuGwDAV8lwrb95H/mlC9W6alJBpr/cuI3WMx7QRDnzyI7oyH4FAHyNA9eCvQeQvbOLKvDrlZweWAyEUi6Xgyq2SBVnLITIAwDiOMP1ATU/fIFSFC+tXcWXNxhblsJiwNqbomyatqGWx6/AZQMAiLsD15vPqNykWeTi66cK/DlBIKQ55iyf4LJB1pgPoobbD6GRCAAgzsImW58Op0wNm2lX8R3hqolZcxHMVAe41KhJ1PbcbUxAAECs0/HaI6q5dD15J0uhDZvMCFmOeWsseMmDnKRAEWpx5CImIAAgdhGreG5Bmq9HP+0q/ieBByQ55i2FwVjpTQ507TXbMAEBALHrqrnygMI27SH/DJlVgf9dUAxyHHs23GDswEKhtepTm7M3MREBALEGr+KLR27UvUDgDymO3QPYKzzYNra21GTPSUxEAECsuWoa/3qMArNkVwX+T0FtyHDs2xL1qZqjTWdE2QAAYm0VX3bcDO0q/hdBIkhw7FsFwSMedCcPT5mggJh5AEBMw9rCvSwUgf/DgMYgcWo7VN987o49UGceABDjlB49RbuK365k38PiyGoI3vDgu/gmoGaHzsNtAwCIMVoeu0JeEXHxr5XkJ1gc2yF1NZ+9ZQfqcucVJicA4MurTV59RAW/Hahdxe8TeENy496qqiLv6h9AjX49hsJlAIAvjqhpdvAcOXv7qAL/StACcvv1bJ8aThlauwF1vfc7JikA4LPpfPslhdasZ76Kh33luHl5MdwCE1KtlZup4zV0jgIAfI6b5iHVXLaB7J1NDbr53K8UZPbr2xq5mrexoZDSFWRJUG7ThUkLAPgUOoU/0SY+sSt4BeQ1flgKdTXvmsCfyoybjpBKAMCnCfyNZ1SwzyCyc3LS+uKDIK/xx4arQh+crxC1PHYZh7AAgI920zTaeZQ8ghJrffG9IKvxy3wEd/ni8JOYy4JK3zwyYQEA76syKTSig1gQpi5fhWxsbFWBPwlJjX/GfRbrqU9hvzTpqdaKTbK7OiYyACA6Ol5/TCWGjSUnL29tEbKckNT4aW6ClarQcyli7gXLDXgxmQEA7wr8E6q3/lfySxeqddN8BymN35ZLcI8vFodBlfxxginBAZMaAGDyw195IEsXpKteRyvwvwo8IaPx2+wF3dSL5psqDYVt2I26NgCASFmt/Gfh74dpY+KfCvJDQvVhAYLVqtCnrliNWp24Jg9YMMEBAB2uPKTqi38xj6bpJLCDfOrHCguuqhewcL/B1O7CXUxwAKw9mubKA2qy9yQF5cyjFfi5Al/Ipv6M3TZ/SP+8kzPVXLYRvnkArNxN0/pUOGWo21Ar8McFWSGX+vXPL1YvpkeixNTiyEVMdACslLYX7lCRAcO1Av9YUAtSqW8LFpxSL2riPPnlqTomPADWR9X5K7UC/49gACTSMoyryN1XL26mBs1kGjMmPQDW46ZpsGU/Obi6akV+ibLbh1mIdRf8bjqI/X6YcUUPHz0Aln3Qevk+Ndl7ijwTJ9EK/AED+rVapE0T/M+g1LcpP3kOhB4ACy88xl2eAjNn1wr8JUE2yKHlmil+nssSV527QvZzhNADYGElC649puaHzlPyIiW1Av+boIKiBTaQQ8s0bsa7Q73o3slDqMaSX2SRItwYAFhOTRpewaepWE0r8M8FDSDw1mHJFZ+c7P4SkCGzrFjJEwM3CAA6F/hwIfAHzlL6GnVltzjlPn8raAXpsy7LYjAmQUihT5g1B9Vesw39YQGwgBV8aK0wsrG104ZKtoXkWadxE/CzqtDz4Uzd9btQgx4AnfrgWeDlCt7OTuumaWdATRqrtsLKabucEAnSZzRWrUTCFAC6iqLhQ9Y0laprXTRMM8TCw9iKCa6oE8MrWXLZSADliQHQRxx8c7GCT1GstFbcVfYKkkHiYGxFtULv7ONHtVdtgdADEM8zWZvuP0MJs+WMSuBVnmnCJmFWbgW0rhs7J2eqNHMxhB6AeErD7YfIK0kyk6B7ebjShP5NaLzAz9vdXOwHQeJgbFzn5jft5Cj2wyjTqgE3FgBff/XOvSGqL15LTh6epvs0ob83zRjSiujKEqKrS2n/0kGUJX0ysrWN5KNfJXCFzFmn2QqyC3ZHteXL1qIdtTp5Dat6AL6q//0BtT5zg0oMH0cGzQFrSNJAWj6+C1H4cvrjzDzJ/y4toqdHfqYaZfKQi7Oj9n4+KEgKybMu48a9rQWP1IngK7Z6aZIHkYN9RChWylLlqNGOw1Lo0UoQgLhdvat1aLI2axNpAZYrUwjtXTRACvyb0/NMIs/8dW6BXNn3blWZfL0iuW/OGVC/xmqMk6JmaSdN+pBgmvZDS7q0+SdqF1aK3F1NjX4pIGMWqjJnObUV20XUpQcgbqJnmDprtlHSQsVM9yK7YaqUyEHXto8TQr70HYHXwg+A6YNbUbJECbRCf1EJoYZZqHFyRH3BSVNEjaMD1Sqbl46tHia2eovpnwsL6d+Li2h074aUVDM53AODqFC/wdTy+FUkTgEQqwlOj6jNmZtUevRk8kmZynQPerq7ULemFej5sZn0j7hHoxP3SEIvVvQbpn9DGdMkMRf6EpBDyzPuFjVW8FK92MkS+9OPPevTw4PTpLCrE+Pt2fn076VFtGZKD8qfLY1pcnDP2PQ1w6j+1v3G4mZw3wAQo+4Zvq+a7DlB2Zq3JSdPL9O9lzZlIrEqb0l/nlsg+RiBV+GFG7t28mVNYy70RSGLlmNlzA9XyxTMTNvn9JOT4O/zC9+ZGG+Vfz/1ywhqVK1wJH9gQKasVHb8DOoU/gSHsgDEkHuGBb7q3OUUnLcA2djamu63isWy0875/aVY8wLsUwRe66c/tHwwFcieVnsvnxfkgDzq3/oKbqkXlg9V+7erQTd3TaC/P2LS/HV+Ad3fP5V+7NUg0iGOi18CyhTWREbfoJIlAF9QnuDaI2p7/g7lbNeN3AITmu4xR0d76t26Cl3fPk6K9OeIu3bR9qe411no80cW+tOCFJBJfZqXYLFB0/4vSZAfbZjxDb04Pkus0j9+0vD28PXJObR1dl/KFpoi4hDI3p4SpMtAlX5eRF3vvkb0DQCf6J7pfOsF1Vy+kYKy5ZKd29R7K1WyhLRsXFd5r/55bv4XCXyEG9Z4L+9dPJCypEumFfp9AndIpr4so2C/QWn7x5QtlEWu3lWf+6dPEOPv3N07mVrWLh7JfePo4UkZajegVqeuoxEJAB9VXMwYvJCtRXt5/2jvJ45xv7R5zGffqx9a0bMbduOM3pQiOED7voshm/oxzl69qp00gzrVot9PzY2xicIunBUTulGgX8TkZB+iZ3BSKjdhlmxggENZAKJevXe68ZQqz15GPilCIpUH9vZwlWHMMS3sUfHf5cU0Y3Ar8zIIPSCf8d9qCR6awh7dnGnt1J6xMmnYR/jw4HS56tCWOWWxT1W2IjXYfgiHsgBoD1cv3acmu09Suiq1yNbO3nTP2NnZUon8GWXsOx+uxrbAm8Irry2jb1pWIRenSJmxeSGj8Tv+3eR/58zVo6uGxpg/LzoXDsfhcmp1ssQJyN4uIiLAycubCvYZKFuScc0NrOyBNdecaXHkIhUdMIJcfP0iiXuQvzdNF6t3Tmz6Mw5W8Ob3L4dOVyianWwjFmp3BB6Q1Phl3BygoeBPdfIUypVeZq7G1aqAJwrXy+jQoIwsjWAwRKzsuSFJhSlzpNjzwSyvZnDzA8tftd+TcFOPCtPnU2DmbJH87j6ebtS4WhG6t3+qTEKMS3HXwv75O3smyYNezeebA1mNX1bbYGzYK90mlUvkpOs7xstCRXE5WXjHwH6+Xxd8R+WLZCMvd9dIkzpF8dJUeeYSKfbcsgyuHGCx8e7XHsl6M1VmL6OQ0hUiByk42FOJfBlpy6w+RJeXfHFoZIy4bcRufNWkbtqCZrxgrAhpjR9WTvBKFXj2j1/bPl6K7deaMP+Jifvq5ByaOrAFFcqZXk5q7SRPW6UWVZy+QN4EnW48g9gDixH3TjefUfPDF2VIcbpqdcx7rkr8vD3kvcH3yN9x6H//oNBfX0Yta5fQftajAjdI7Nc1LjJ2W70olYrnoKvbxsmn8teeMLyq50Od6+KBM6x7PcqdOSTSRLd3dhZiX0NmzTY/fEHGCqO/LNCluIt52/n2C2ohxJ3nc/rqdcnB7Z3GHdcMmnIizk6O1KxGMTq1dkSc77jf55+/t2+Ktl7VH4KekNmvZ3wwclCdNFxf5sKm0fFC4M1rZvCu4sSaYTS4ax3zIkmy+UFI2YpUfOgYk9ijyiXQRZz7lYdC3F9KnzvP31RlK0Vq5qFwVvCtoKCgnmCj9v/nzpKKVk/uLpt9xIf7lXcWs4dHKml8WBAAuf06NkW9EMEJ/ejw8iHxTuDND2Z5pXBkxRAa3iOM0qZIFFnsPb0oOG9BKvDN99T0wFmj2F9FpUsQP0sQ8Pxsuu805e/VX9aZcXxX3LmdZndBZoGN5r4NEnQVPDFostAnD2gu3SWxd7i6QB7ufkwoNQdQZI7Ihn0t6AC5jXsrrYZKcgjWotEdv+rp/KekVPPKnn2RJ8U29advG1JoSOJIN4eDqxv5pk4nK/DV37yPuoiVEjJowdfHWB2SxT1sw27K0qQV+aZKK+arq7m4XxZ0FKRVot6ii4bjlf059fe4JtQQsdOlGytixQ1zY+cE2jzzW5nE+KEwTa5Pv1BoiuY7rRa4QHbj1o6oF6BBlUIfVWQsPsETja4tlaFbC0d3MA/dMsYPOzqRawJ/2ZWKm4rzAW2n8KcIvwRxf5gq5h1ncFeYOpeSFyslC/PZOTqaz1mu5thEkETg8JH3cWKDsWaMqRn3D11qx7jQ39s/Re4WAvw8qW1YqY+qZHnr14mUNMgUz39FUASyG3dWT42m8XBzofv7pn4w2UkegnKT38tLvurD4E+lJRnH73/TsjKlTBJAri5OcjdiiKK/rJo96+DiSj4pQ6hgn0HU/MhFGcGAiBwQ64epN59Ll0y+rt+SV9JkZO/sEqn8r8ZnXdlgLAZo9xn3M0evbNYK/YieYZF6tn7pKv7Cpp9Mn5fvt37tqn3wDODZ0ZnUuXE59fe4/lUXSG/c2Q71gg3sVOuDyU68aj6+erh8kmdMnYRu7574yQ0HYsonv3vh91SucFbZvkxbBsGMf5Ut71Hlv99x56QuX4WqL1wjWxFC7EFMr9zbnrtNlWYsouRFS8omOYZ35+rfglWCfDF0T9tpD2T9fDxky76YOox9c3ou9Whe0fT5gwJ8aMmYTh88w9v087fa78xngLaQ39g3PsS5KUMQ7W3p8aEZ0s/93thXMVFKF8hsdIGIVcj4/k3iPIb+6MqhMjnK7Ebh1cFfBmMTca5+10wQajaRQgTjBU+VG+s/7Wt4Biej3B17UINtB6j16Rvy5oRQgU+F5w1XT62zdgdlbdpaugnN5up/yvzjmlDDDcYOazFtLPQ7tYexayb3iNSt7Ut4dWI2NahcyPSdiuXNQFe3jY223Dj77c+uHym9BcrvrBMkggTHvnVRXTV1yuX74IqcD2PXT/9GxuTy73Bj7nPiwv11fkGsx9u+EX/yYU+vlpXNk6H4ZnksWGP4+Iw6vgFaCPYKXigPh0g3YlC2nLL/bINth6RLh/tjsv9e1rdHzRyg1JCROz/xZ+tT4dTs0Hmqu34X5enci3zTpI1qV8lZ5M8EWwV14uD+5nruB9T3z5Q2Ke1bPDBG7le+J+/smUwZUgWbvt+QrnXla7+N5uf5IZAtNLn684cMxvLlsFi22epqdvbwtu9dxXOq9Ivjs2USko1yUZvVLCYTlGI7Cer5sVm0elJ3ypw2mfnK/Y6y7UvzBWOQVTBGcErZBfxnfnMG5ysk/fe1V22hxruPU6uT16WPleOa4d6xPlHvcPWh/HuLo5eo4Y7DVG3hGsrZvhv5h2aKStj/EdxXghsGKbvJuLRgZW7Lz1MyfyY6v3F0jBUZ5N2B+tos4LzLjirrlkWee0+UyG8aozOCXJDg2Let6gU6t37Ue0MVOYuuf/sa5OToYOzJ6udFt3dPitWDV976Xds2jvq0qWa+eudt7nxBphgcCydBNcEsxX//KCoff1CO3JRL3NAVps2jur/slKUUONmKw+H45ke0jqX51B/IOHa+vm3P36ZGu45RreWbqNSoSZSpfhPyCUkd3VnQXSXSZZygxFe+z7MqES3ys9WvXFAWEPvSCpX8oOCGP7XL5zN975/6NIo+7FKIfPG8GSDycWjOgj3qxXlyeMZ7iw1tn9uPEgX6mC4mNyKIKf9edA+VnfP6U4Vi2c19mdw8vGYsjw37CrnM8mRljB5EdSPzDc71RAr3G0yVZiykeht3y21751vPZYgcRF+HK3Xlgc0RV1z0run+01Rz2QYqM3aaPK9RQx6jEfYbSmTLSCVCxjse3e9lBb+pn7Vr0wpihzzzixdpxmY/XU2LsEI509HlLWPeKZKmumtCI9w7h2J4kQaLwjy0MbUc4hRdGQF+WpcrktU0mauXzh2jXaHMVwf/XFgkO8ykTRGkvYHYd/6jIGkcjxM3JK4hGKwcFt2O6gZ38fGVq/zQ2vVllm35KXMpbOMeeQjX5c4rk2jAvRO/SvdyFjTHrRuT5J5Q032nqPqiNVR82BjK0boThZSpQL6p0sjew1Fcd3YZcpmBRYJeBmNSoX88vuebK/eR/PxcAyomRJ4bk2gDIbisgvnr8t9PrB4ugzWUn1srSAgZjl3j1Ohd6oXhQ5Sotlh8ETmhQn1S8yk9n5LHVl2a16fmUK8WlczLCl9WDqocv/KYcbJJMUEbwQytr9Mct8AgSpg1B6UqV1mIRUcq+eMEqrVik4y6YNHnGiXcso1dARD+uBL0h2KH9VRmmXbhJvFi3MM27aXyk+dQvh79KLRWGCUpUETu0KLIPFXhomDblaiYMMXl4K2Te56TqgYYlD4Rrs5OcjH1pQXN2K06undD0xi1rluSHh6cFumMj7PSJ37XTDuOoyHBcWNr1UHfMa9flCV+d87/TiYZqT83f2T7GBd3jpzhxCp+0NQul4/s7SOVU90ST7d1fGNnMBj733Ify5WCe9GJPnfvYfHg1X6qclVkBAZXGOSUdo7P73b/D0X4n8na4RD+L/Oj866Jx5LHtOu9N/KQvMG2g1Rx2nwq0Os7Cq0ZJmsbJUiXgdwTJiI7J6doE+gEJwSTBI0Nxlj2FMoZjh6Nk6VmqgEGXP5g7eSeXxQGzW7bPYsGmFwx/JoXN/8UyefPop86uWlnztFwdSG/cWPsO5Thg993qBlpi8Vuk/sHplGLWsVNk71pjaLvPKFjROCvLaOTa4ZLf55ZUtMEgZ8OxpF3GAFKlE9RQR/BeoMxHj9K4bB3cZG+Xc8kSckvbXpKWri4rK9TYtgYqrl0PbU8ekm6ELrcfSV9/OxSkKt+rqiJEE5TlIv0n9+IWJ3zn1x9tMaSX6jE0DGUvUV7Sl68NCVIn4G8kiYnV/8AcnBze1/ynCrqk5VzGc4lSWYwZqBaivlogy4CE3hLkf5coWfdeC1W6k2qFzGN4cyhbeS/qZUoOfTZbOHmCfmNG6uhRpGkS5lI+sK1T2eOiXdzMa5wEgf60v4lg2K8vytXyuNCRxlSB5vfaO10vFpyUlb6XCEwh8FYdY8TtG69R1hk/RKuG+7s7SMTaLyTp6TkRUrIhJoiA4ZTlTnLqOGOI9L1IF0+N59LgWNfMj8A5EGvErdtEaGKHKZ61RjZwg85PteQYi4efhzGWm/dLtkGssC3AylTWBMKzl/YKORi7HgMeSxlTZj3C/orRfB+UA4nkykLC17x2lnwvc/+cFNBM3bDHls17LOFnoMzuK+st6fRzVUyXyaZXMmvx4Kv6ffK1TIbQnrjdut2Ub3QHM3CCVFqsf/mmlU8125/dXJ2jK3i3yrJVfNHdpAPEM1N95fiArGklGc7ZbXvpAh/BYMxZnqLsnWNvtaOuDls7ezI1sFBFlnj5ihcisEzOKmM32e3Q+7OvajE8HGyNVzY5r3U8vgVKfwsjuy2MD4AjA8BGdsvxJNdGiykEqV3aLuYTPRSXkt9bdN78fsqOQby8/Dn4hBF8Tnl5w1/Qq3P3KRG2w9TjcXrZFRLQSHi/KALKVORAjJmla4v3glxiQAWcVt7B9kx6QOrc7XMLSfAcV4E12ziyo4uynWxN1hfmj27ne6q45MsUQIp9J/jo+fVOteQyps1IqT04ubRsmOVfUQ3Kz6ongPZjXsbq7psiuQOlcLL4U+HVwyRNS/43zmr7eDSH2KstRg/KPiAdWzfxqadgiGiq7s1hlX5K6vIb5UV/0XlcOw/DfQpcDSIW2BCCsiQmZIWKkZpK9ekLI1aUp5OPalw/yHyIJgPHCuLB0PtlZtl+GfD7Ydkv9wWSoZvuwt35XnBx8I/3/p0uPz9JntPyUShur/soJrLN8pdSLnxP1OJYWOpYN9BlLtDD8rcqDmlqVyDkhUuTv4Zs5BHUGIh3E70qd/VbJz+U8aOx3CpoL/BmAmdGLd6lJZe61ZMmSSQDq8c8sEaVtHtyjs2LGt62KYI9je/RnsMKDH8VSy1wZiRJy/GsrFd5AX7eWhENxeuHvfyxOwYSXxigedu8r1bV42q+l4yXI5IlkpQSdBbOSzjm+Q3xcXAq9I3iqBxaYd/lZUSxTS8k7BzcIyWqPqOxhD/Kd/rH2Uh8lb5zvz9OcrlqrIb4kNRLtFRXpAc0+aTLafguTru3K5v44zecrH3Kfc8u2bY9ZosUYKoigTuM+gnCskibYwqEB5uzjLRibPiDEop0bk/tvviLlFvFYE/v3GUjKAxu5GXG+J3fHF8M05kC1VW/60U1w+XqOBEHM4kDDcY4/k52ueh4gd9roij+YPhk3cJXyjYf5uJ9QtlJflI+by8m+OkokvKQ22pstvkrkgckcHNMZJiCsS4ZVfG3pjo5+UuQx65qxML/fvEnu9rdvPyQeuSsZ1lZzlD5DOPxYboG57A4si4kNHRqG7OTGmS0t7FA78ou5Vj7blq3ZZZfcx7snI3qpHK+8Ni1jgahOuk5BWUMxhjuvkwmyN/RhiM0SPzBCsEmwzGTGIuZnVE4bjBGGVyUnBaeXhEx2nlZ08ov3dE2Zlxz2AuZb1ReZDzg2iiYJjimuLPwxEsfEaRX/GR++HSfTXjkOBIuR+NqxWhA0sHyWRJduFwTDyv8FnU+b5Wc1vObxhF37SqTC5ODubNxptjWOOPpVS2vv9oLzLHtnJJg885jOGnP8fah+8YTz/2qk8uzpG639xWbnIbDH28ND4sdlB2DbzN9nkP/EBxUn4e11PfxrukVcpuT96riQJ8ZAjkL1N70Yk1w+n69nEUvnOCTIrcIbRhpLi3ubeE2QJxj/LQgMUz8zZEHP4dUi8Yx78+OjRdttf7WIFXm/yun/ENVSmRK6oJUA7DDYPFS/NQdOCq9r7lEuO5MoVQ5RI5qVrp3DKvJdDPy/zeZvcg92wIxDDGb2P/WWGDksHJlSeHdqsrO8J8qBY1b9+43+rx1cOoe7OKFOTvbV7rY6KyLYfBYPHb8iv3a5T1mgzv5hssEVQ1WHZ+gcVt1zurF9Hb0436t68uD1f4EFZtDsCHLvzffLJO15fLrdyAjjW1zQFUOPGCY5Phf4fB9GNuith3Vnb4fO7CB7QcX3/BYMzsHmAwBgEkwHDpzzj1eLJB07S3VIHMNG9ke1mPmssRcDvA3/ZOprVTelK7sNKUOW1Ssa1zMBd4PuhLj+GEwXRrfNailu7IYjDWqOcIL25K4oTh0bf5CqZrRZsLEHGiA5dCSCtIERxA/r6e5GD/Trz0BoOxoJMbhhEGg8Hir3FKPkfCPDd8XEz0AWX7hiJEMBgMpiNjn1s3gzEG+m9D5Hoz7Ksbqmzl7A0IpYPBYBZo/wfdEDp/Geb5SQAAAABJRU5ErkJggg==;" vertex="1" parent="1">
          <mxGeometry x="129.27" y="500" width="51.45" height="70" as="geometry" />
        </mxCell>
        <object placeholders="1" c4Name="User Management System" c4Type="SystemScopeBoundary" c4Application="Software System" label="&lt;font style=&quot;font-size: 16px&quot;&gt;&lt;b&gt;&lt;div style=&quot;text-align: left&quot;&gt;%c4Name%&lt;/div&gt;&lt;/b&gt;&lt;/font&gt;&lt;div style=&quot;text-align: left&quot;&gt;[%c4Application%]&lt;/div&gt;" id="rG1uwLwOo09HGBvehcps-6">
          <mxCell style="rounded=1;fontSize=11;whiteSpace=wrap;html=1;dashed=1;arcSize=20;fillColor=none;strokeColor=#666666;fontColor=#333333;labelBackgroundColor=none;align=left;verticalAlign=bottom;labelBorderColor=none;spacingTop=0;spacing=10;dashPattern=8 4;metaEdit=1;rotatable=0;perimeter=rectanglePerimeter;noLabel=0;labelPadding=0;allowArrows=0;connectable=0;expand=0;recursiveResize=0;editable=1;pointerEvents=0;absoluteArcSize=1;points=[[0.25,0,0],[0.5,0,0],[0.75,0,0],[1,0.25,0],[1,0.5,0],[1,0.75,0],[0.75,1,0],[0.5,1,0],[0.25,1,0],[0,0.75,0],[0,0.5,0],[0,0.25,0]];" vertex="1" parent="1">
            <mxGeometry x="-90" y="320" width="1020" height="340" as="geometry" />
          </mxCell>
        </object>
      </root>
    </mxGraphModel>
  </diagram>
</mxfile>
